<?xml version="1.0" standalone="no"?>
<!DOCTYPE svg PUBLIC "-//W3C//DTD SVG 20010904//EN"
 "http://www.w3.org/TR/2001/REC-SVG-20010904/DTD/svg10.dtd">
<svg version="1.0" xmlns="http://www.w3.org/2000/svg"
 width="1536.000000pt" height="1536.000000pt" viewBox="0 0 1536.000000 1536.000000"
 preserveAspectRatio="xMidYMid meet">
<metadata>
Created by potrace 1.14, written by Peter Selinger 2001-2017
</metadata>
<g transform="translate(0.000000,1536.000000) scale(0.100000,-0.100000)"
fill="#000000" stroke="none">
<path d="M8024 13543 c-13 -9 -19 -30 -21 -75 -7 -109 -1 -103 -95 -106 -131
-5 -148 -6 -148 -16 0 -5 -2 -7 -6 -4 -4 5 -36 -1 -99 -18 -11 -3 -26 -6 -32
-6 -7 -1 -13 -5 -13 -9 0 -4 -12 -10 -26 -13 -34 -9 -101 -53 -141 -94 -18
-19 -33 -30 -33 -26 0 5 -8 -7 -18 -26 -10 -19 -31 -57 -47 -85 -15 -27 -31
-57 -35 -65 -4 -8 -15 -31 -24 -51 -30 -63 -37 -154 -21 -269 5 -30 8 -63 9
-72 0 -10 4 -18 9 -18 5 0 7 -6 5 -12 -3 -7 2 -19 9 -27 8 -7 12 -20 9 -27 -3
-8 -1 -14 4 -14 6 0 10 -6 10 -12 0 -7 16 -30 35 -51 19 -21 35 -41 35 -45 0
-4 14 -16 30 -25 17 -10 30 -22 30 -28 0 -5 6 -9 13 -9 7 0 23 -9 34 -20 12
-10 33 -22 47 -26 14 -3 26 -10 26 -15 0 -5 3 -8 8 -7 8 3 69 -15 152 -44 58
-21 76 -26 125 -35 17 -2 32 -7 35 -10 3 -2 5 -38 6 -79 1 -62 5 -79 23 -98
15 -16 29 -22 46 -18 14 2 25 0 25 -5 0 -10 8 -11 159 -16 113 -4 137 5 145
53 3 14 5 25 6 25 1 0 2 19 3 43 3 47 16 61 62 63 57 2 90 7 140 19 28 6 59
13 70 16 75 15 201 106 271 196 35 45 84 122 80 126 -3 2 2 11 10 19 8 8 12
19 9 24 -4 5 -1 9 5 9 6 0 10 6 9 13 -1 6 3 24 9 38 6 15 9 76 7 145 -2 124
-24 215 -68 294 -23 41 -109 134 -128 138 -8 2 -21 10 -29 17 -17 15 -137 70
-165 75 -3 1 -19 6 -37 11 -49 15 -81 22 -100 21 -10 0 -20 3 -23 8 -3 5 -12
7 -20 3 -17 -6 -17 -5 -20 101 -1 79 -8 93 -50 103 -5 1 -21 5 -35 8 -74 19
-253 24 -276 8z m-61 -534 c3 -11 4 -30 2 -42 -2 -12 -6 -56 -9 -97 -4 -41 -8
-86 -10 -100 -3 -14 -7 -65 -11 -115 -9 -110 -16 -125 -58 -125 -153 1 -272
219 -193 354 45 77 154 145 232 146 34 0 43 -4 47 -21z m492 -38 c122 -47 140
-75 148 -226 3 -44 -1 -71 -16 -100 -37 -77 -135 -138 -222 -139 -49 -1 -50 0
-51 29 -1 17 1 34 4 39 3 5 6 50 8 100 5 141 9 200 15 211 4 6 5 26 3 45 -1
19 2 41 8 48 12 14 57 11 103 -7z"/>
<path d="M9592 13304 c-7 -7 -12 -16 -12 -20 0 -7 -60 -170 -90 -244 -52 -127
-160 -414 -160 -422 0 -4 -5 -19 -12 -35 -6 -15 -12 -32 -13 -38 -2 -5 -19
-55 -40 -110 -37 -98 -45 -123 -44 -128 0 -1 -8 -24 -19 -52 -22 -58 -29 -78
-30 -85 -1 -3 -15 -43 -32 -90 -17 -47 -34 -104 -39 -128 -8 -38 -6 -44 13
-54 11 -7 24 -11 29 -10 4 1 7 -3 7 -8 0 -5 3 -9 8 -8 4 2 21 -2 37 -9 43 -16
69 -26 75 -28 3 -1 23 -10 45 -20 80 -37 122 -40 130 -11 15 48 69 192 77 201
4 5 8 16 8 24 0 36 52 150 71 156 20 7 79 -14 79 -28 0 -5 4 -6 9 -3 5 3 26
-1 46 -10 21 -8 52 -17 70 -19 18 -3 44 -9 59 -15 14 -5 26 -7 26 -5 0 3 15
-1 33 -8 43 -17 173 -13 262 8 39 9 136 56 175 84 37 27 90 83 90 95 0 3 8 14
18 24 26 28 51 66 49 74 -1 4 7 14 18 22 11 9 16 16 12 16 -5 0 -1 7 7 16 9 8
14 20 11 25 -4 5 -1 9 5 9 6 0 10 8 9 18 -1 9 0 19 1 22 2 3 3 19 4 35 1 17 5
35 8 40 8 14 4 67 -5 83 -5 6 -6 12 -2 12 3 0 0 10 -7 23 -7 12 -13 24 -13 27
0 3 -7 16 -15 30 -7 14 -13 27 -12 30 1 3 -5 13 -13 23 -8 9 -11 17 -7 17 4 0
0 6 -8 13 -8 7 -21 24 -29 40 -8 15 -18 27 -23 27 -4 0 -8 5 -8 10 0 12 -79
91 -126 127 -16 12 -67 39 -114 59 -47 21 -93 44 -102 52 -10 8 -18 12 -18 8
0 -3 -16 1 -37 9 -20 8 -50 18 -67 21 -17 3 -33 10 -37 15 -3 6 -9 10 -13 9
-17 -4 -136 29 -146 41 -3 3 -18 9 -35 13 -31 7 -39 9 -65 19 -8 3 -24 8 -35
12 -33 13 -51 12 -63 -1z m361 -469 c43 -14 102 -37 131 -50 56 -25 131 -87
119 -98 -3 -4 -2 -7 4 -7 14 0 10 -103 -5 -118 -7 -8 -10 -17 -8 -21 6 -10
-51 -54 -88 -68 -94 -35 -350 14 -372 72 -4 8 7 47 24 87 16 40 39 103 52 140
18 58 38 86 60 88 3 0 41 -11 83 -25z"/>
<path d="M5340 13151 c0 -7 -90 -35 -102 -33 -5 1 -8 -2 -8 -7 0 -6 -8 -9 -17
-9 -16 0 -137 -45 -538 -202 -112 -44 -112 -44 -86 -127 12 -37 25 -75 28 -83
3 -8 7 -17 8 -20 1 -3 7 -25 14 -50 7 -25 16 -52 19 -60 3 -8 4 -20 4 -26 -1
-6 3 -33 8 -60 6 -27 13 -76 16 -109 3 -33 9 -73 13 -90 6 -23 6 -279 0 -375
-5 -81 -61 -283 -85 -308 -8 -7 -14 -10 -14 -5 0 4 -4 3 -8 -4 -4 -6 -16 -13
-27 -15 -32 -5 -34 -18 -14 -65 10 -25 19 -51 19 -59 0 -8 4 -14 8 -14 5 0 9
-6 9 -12 2 -20 27 -82 36 -89 5 -3 8 -10 7 -15 -3 -16 23 -84 32 -84 5 0 6 -5
3 -10 -4 -6 1 -22 9 -35 9 -14 13 -25 10 -25 -4 0 0 -8 9 -18 10 -10 14 -21
11 -25 -3 -3 3 -10 13 -15 18 -10 101 18 256 86 48 22 60 45 35 70 -7 7 -8 12
-3 12 5 0 -2 11 -15 25 -31 34 -35 90 -7 110 12 8 29 15 39 15 10 0 18 4 18 9
0 5 6 8 13 8 6 -1 28 6 47 15 19 9 62 26 95 38 66 24 173 66 220 85 47 20 109
39 118 37 4 -1 7 2 7 6 0 4 9 8 20 9 18 2 32 7 115 43 17 8 32 14 35 15 3 1
20 5 38 9 17 4 32 12 32 18 0 6 3 8 7 5 3 -4 12 -2 20 4 7 6 13 8 13 5 0 -4
10 0 22 8 28 20 72 21 87 2 7 -8 14 -26 17 -41 3 -15 12 -38 21 -51 12 -20 22
-24 46 -20 16 3 34 11 38 18 5 7 9 9 9 4 0 -5 6 -3 13 3 8 6 17 8 20 4 4 -3 7
-1 7 6 0 7 3 10 8 7 4 -2 23 3 42 11 19 9 42 17 50 19 43 9 45 54 5 137 -14
28 -25 55 -25 61 0 18 -93 241 -109 259 -14 17 -28 18 -88 3 -13 -3 -32 -8
-42 -10 -11 -3 -29 -9 -40 -15 -33 -18 -67 -13 -83 12 -8 12 -27 54 -42 92
-15 39 -31 75 -35 80 -4 6 -34 79 -66 163 -32 83 -62 152 -67 152 -5 0 -6 5
-3 10 4 6 0 22 -9 35 -9 13 -16 29 -16 34 0 5 -10 31 -22 58 -11 26 -22 53
-24 58 -1 6 -10 28 -20 50 -10 22 -18 42 -19 45 -5 26 -31 80 -38 80 -4 0 -6
4 -2 9 3 6 -6 34 -20 62 -14 29 -25 59 -25 66 0 14 -2 15 -42 18 -16 1 -28 -1
-28 -4z m-175 -451 c10 -11 14 -20 10 -20 -4 0 0 -9 9 -19 10 -11 15 -24 12
-29 -3 -5 1 -15 8 -21 8 -7 17 -30 21 -52 4 -21 11 -39 16 -39 4 0 6 -7 3 -15
-4 -8 -1 -15 5 -15 6 0 11 -8 11 -18 0 -10 7 -28 16 -40 8 -12 12 -22 8 -22
-3 0 -1 -7 6 -15 7 -8 9 -15 5 -15 -3 0 7 -26 24 -57 17 -31 31 -64 31 -73 0
-9 4 -20 8 -26 5 -5 15 -25 22 -44 22 -60 53 -120 62 -120 4 0 8 -5 8 -11 0
-6 10 -24 21 -41 l22 -30 -27 -25 c-15 -14 -37 -26 -49 -28 -48 -7 -72 -15
-75 -25 -2 -6 -8 -8 -13 -5 -4 3 -20 -2 -34 -11 -14 -9 -25 -13 -25 -9 0 4
-11 0 -25 -9 -14 -9 -25 -14 -25 -10 0 4 -7 1 -15 -6 -8 -7 -15 -9 -15 -5 0 5
-9 0 -21 -11 -12 -10 -24 -17 -28 -16 -3 2 -14 8 -23 13 -17 9 -17 18 -2 79 9
33 13 322 5 335 -3 6 -6 22 -7 38 -1 15 -3 30 -4 35 -1 4 -3 21 -5 37 -1 17
-3 32 -4 35 -3 6 -10 46 -15 85 -3 17 -5 30 -6 30 -1 0 -4 14 -6 30 -3 17 -7
37 -11 45 -3 8 -7 22 -9 30 -2 8 -8 16 -13 18 -18 6 -12 38 12 59 19 19 40 26
83 32 6 0 19 -8 29 -19z"/>
<path d="M11252 12648 c-54 -87 -135 -260 -163 -347 -48 -149 -43 -271 16
-452 21 -63 76 -171 96 -189 3 -3 16 -24 29 -47 13 -24 27 -43 31 -43 9 0 24
-68 17 -76 -17 -16 -198 -29 -198 -14 0 5 -7 7 -15 4 -8 -4 -15 -1 -15 6 0 6
-4 9 -10 5 -21 -13 -94 70 -132 151 -41 89 -53 102 -84 100 -23 -2 -154 -93
-154 -108 0 -4 -6 -8 -13 -8 -7 0 -27 -13 -45 -29 -17 -17 -32 -28 -32 -25 0
2 -16 -10 -35 -28 -23 -21 -31 -34 -24 -39 6 -4 8 -12 5 -18 -4 -6 -3 -11 3
-11 5 0 12 -13 16 -30 4 -16 11 -30 16 -30 5 0 9 -6 9 -14 0 -7 7 -19 15 -26
9 -7 14 -15 12 -17 -3 -2 15 -25 39 -51 24 -26 46 -54 49 -62 15 -41 177 -142
269 -166 74 -20 250 -28 320 -15 72 13 237 87 406 181 69 38 154 83 190 101
35 17 89 50 120 73 68 51 111 80 127 82 15 3 267 175 271 186 2 4 11 8 19 8 9
0 26 12 39 28 13 15 24 23 24 17 0 -10 40 45 40 56 0 13 -59 66 -110 99 -30
19 -57 37 -60 40 -3 3 -42 29 -87 57 -79 50 -122 61 -131 33 -2 -5 -8 -10 -14
-10 -6 0 -31 -16 -54 -36 -24 -19 -44 -32 -44 -27 0 4 -4 3 -8 -4 -7 -12 -108
-83 -117 -83 -3 0 -14 -8 -24 -17 -29 -27 -70 -54 -76 -51 -4 2 -11 -5 -16
-14 -6 -10 -15 -18 -20 -18 -6 0 -36 -18 -68 -40 -32 -21 -61 -36 -65 -33 -3
4 -6 1 -6 -7 0 -24 -40 13 -71 65 -87 149 -106 241 -74 363 10 37 22 71 26 76
5 6 9 18 9 27 0 10 3 19 8 21 4 2 16 21 27 42 11 22 35 56 53 75 53 56 49 76
-33 138 -100 75 -261 183 -273 183 -6 0 -19 -15 -30 -32z"/>
<path d="M3670 12352 c-22 -7 -101 -65 -217 -159 -108 -88 -104 -82 -88 -163
4 -19 8 -39 9 -45 1 -5 5 -15 8 -21 4 -6 9 -22 12 -36 2 -15 9 -36 16 -47 6
-12 8 -21 4 -21 -3 0 -1 -7 6 -15 7 -8 9 -15 5 -15 -4 0 -2 -7 5 -15 7 -8 9
-15 5 -15 -4 0 -3 -6 3 -12 6 -7 11 -17 11 -23 1 -5 7 -28 13 -50 6 -22 12
-44 14 -50 1 -5 7 -30 15 -55 17 -63 20 -73 23 -90 1 -9 5 -20 8 -26 15 -23 0
-49 -33 -58 -19 -5 -37 -14 -40 -19 -3 -5 -40 -10 -82 -12 -42 -2 -81 -6 -87
-10 -6 -4 -19 -4 -28 0 -9 3 -35 9 -57 12 -22 3 -46 10 -54 16 -7 6 -20 12
-29 13 -8 2 -18 6 -21 11 -6 8 -37 29 -60 40 -23 11 -132 127 -148 158 -33 63
-67 82 -93 50 -7 -8 -16 -12 -21 -10 -4 3 -13 -4 -19 -15 -6 -11 -15 -18 -20
-15 -4 3 -10 2 -12 -2 -4 -10 -138 -115 -138 -109 0 3 -16 -10 -35 -29 -19
-19 -39 -35 -44 -35 -17 0 -21 -31 -7 -51 15 -22 85 -95 168 -175 58 -56 161
-130 223 -162 57 -28 178 -52 293 -56 99 -4 199 14 354 63 31 10 63 14 70 10
16 -10 20 -87 5 -113 -6 -12 -12 -24 -13 -28 -1 -5 -2 -9 -4 -10 -1 -2 -3 -11
-5 -21 -4 -22 -49 -76 -89 -105 -37 -27 -88 -42 -179 -52 -38 -4 -71 -11 -75
-14 -8 -9 -11 -78 -3 -91 3 -5 7 -21 9 -35 2 -13 9 -28 15 -32 7 -4 9 -8 5 -8
-4 0 4 -25 17 -55 14 -30 22 -55 19 -55 -4 0 0 -7 7 -17 8 -9 13 -19 13 -22
-1 -3 2 -17 7 -31 5 -14 11 -30 13 -35 4 -10 32 -11 102 -2 17 2 35 6 40 9 16
10 109 38 115 35 3 -1 13 4 21 10 8 7 34 19 57 28 69 24 184 125 222 195 11
19 23 42 28 50 5 8 19 40 31 70 11 30 25 64 30 75 5 11 14 53 20 92 12 76 6
163 -26 338 -7 44 -16 98 -20 120 -17 123 -76 386 -114 515 -17 58 -32 110
-34 115 -1 6 -12 44 -24 85 -13 41 -28 93 -34 115 -14 49 -47 113 -62 118 -6
2 -18 2 -26 -1z"/>
<path d="M2068 10958 c-8 -7 -36 -41 -63 -76 -26 -35 -64 -83 -84 -106 -98
-116 -93 -106 -93 -211 1 -49 9 -140 13 -140 1 0 3 -9 4 -20 2 -11 6 -33 10
-50 4 -16 9 -50 11 -75 6 -50 12 -107 19 -160 16 -120 16 -147 1 -160 -11 -8
-16 -9 -16 -1 0 6 -8 11 -18 11 -10 0 -27 8 -38 18 -10 9 -45 35 -76 56 -32
21 -66 47 -77 57 -11 11 -22 19 -25 19 -3 0 -31 18 -63 41 l-58 40 -39 -43
c-83 -92 -176 -207 -176 -217 0 -6 -4 -11 -10 -11 -23 0 -7 -31 33 -62 23 -18
44 -36 45 -40 2 -5 8 -6 13 -3 4 3 14 -3 21 -15 7 -11 17 -20 23 -20 6 0 21
-10 35 -22 14 -13 43 -36 65 -52 22 -17 42 -32 45 -35 3 -4 12 -10 22 -16 33
-20 253 -188 264 -201 6 -8 14 -14 18 -14 4 0 17 -9 29 -21 12 -12 33 -28 47
-37 37 -24 333 -244 350 -261 24 -24 132 -91 146 -91 14 0 111 108 194 215 30
39 59 73 64 77 12 8 -29 47 -100 94 -29 18 -58 39 -65 46 -8 8 -52 40 -99 73
-47 33 -86 63 -88 67 -2 4 -9 8 -16 8 -26 0 -76 78 -76 118 1 43 13 47 155 47
74 0 135 -3 135 -6 0 -4 28 -7 63 -8 84 -1 242 -9 294 -15 24 -3 45 -1 48 5 4
5 10 7 15 4 16 -10 67 23 99 64 17 21 31 42 31 46 0 8 64 91 84 110 21 19 46
73 46 99 0 18 -6 26 -17 27 -10 1 -27 2 -38 3 -11 0 -24 4 -30 7 -5 4 -30 7
-55 7 -44 1 -125 7 -225 18 -27 3 -77 6 -110 7 -33 2 -64 5 -70 8 -5 3 -31 5
-57 5 -27 -1 -48 1 -48 4 0 3 -28 5 -62 5 -35 -1 -67 1 -73 4 -10 5 -33 8
-130 15 -33 2 -67 7 -77 11 -18 7 -28 49 -42 170 -4 28 -9 68 -11 90 -14 117
-57 408 -71 478 -6 29 -21 34 -46 15z"/>
<path d="M13042 10819 c-161 -81 -308 -153 -325 -158 -18 -5 -79 -29 -137 -54
-128 -53 -193 -64 -260 -42 -39 13 -110 70 -110 88 0 3 -10 26 -22 53 -12 27
-21 52 -20 57 6 21 -60 2 -142 -42 -50 -27 -95 -50 -101 -51 -49 -12 -98 -53
-103 -86 -1 -11 5 -38 15 -60 9 -21 17 -41 18 -44 19 -78 169 -268 213 -270 6
0 12 -5 12 -12 0 -6 3 -9 6 -5 4 3 23 -1 43 -9 38 -17 281 -27 281 -12 0 4 10
6 23 4 12 -2 36 2 54 9 17 7 34 11 37 7 3 -3 6 1 6 8 0 7 3 11 6 8 5 -5 63 10
114 29 8 4 17 7 20 8 3 1 18 7 33 13 16 7 33 10 38 6 5 -3 9 0 9 6 0 7 6 10
13 7 6 -2 19 2 28 10 9 7 25 15 37 18 11 2 34 11 51 19 17 9 34 17 38 17 12 2
55 19 87 34 16 8 32 12 37 9 5 -3 9 -1 9 4 0 8 17 15 60 27 3 0 20 11 39 22
19 12 38 20 43 17 4 -3 8 0 8 5 0 6 3 10 8 10 4 -1 9 -1 12 1 33 12 50 7 76
-27 57 -73 61 -97 22 -124 -11 -8 -31 -24 -44 -36 -13 -13 -26 -23 -29 -23 -5
0 -17 -9 -77 -62 -21 -18 -52 -44 -69 -58 -17 -14 -46 -38 -64 -55 -33 -30
-63 -55 -140 -118 -22 -17 -63 -54 -91 -82 -29 -27 -67 -61 -86 -74 -18 -14
-39 -33 -46 -43 -7 -10 -19 -18 -25 -18 -7 0 -23 -12 -36 -25 -13 -14 -36 -33
-52 -42 -16 -9 -31 -23 -34 -31 -3 -8 33 -61 82 -124 49 -61 99 -125 113 -144
14 -18 32 -34 41 -34 8 0 33 17 55 38 35 35 154 138 319 277 32 28 67 58 77
68 10 9 22 17 27 17 5 0 21 14 35 30 14 17 27 29 29 28 6 -4 205 164 219 186
4 6 8 7 8 3 0 -4 10 2 23 14 12 11 38 33 57 47 19 15 45 37 57 49 12 13 26 23
30 23 4 0 23 14 41 31 17 16 32 28 32 25 0 -3 15 8 33 24 17 16 48 43 67 60
37 34 42 48 25 66 -5 6 -17 21 -25 34 -8 12 -26 34 -40 49 -43 47 -141 170
-142 178 0 4 -9 14 -19 21 -11 7 -19 20 -19 28 0 8 -4 14 -9 14 -5 0 -41 39
-80 88 -39 48 -78 96 -88 107 -10 11 -24 32 -32 48 -8 15 -18 27 -23 27 -5 0
-18 9 -30 20 -12 11 -29 20 -37 19 -9 0 -148 -68 -309 -150z"/>
<path d="M7470 10589 c-142 -13 -251 -36 -374 -79 -72 -24 -253 -119 -319
-166 -26 -19 -52 -34 -58 -34 -5 0 -7 -4 -4 -10 3 -5 1 -10 -4 -10 -6 0 -20
-8 -30 -17 -66 -62 -91 -83 -91 -80 0 17 -491 -478 -691 -698 -35 -38 -93 -99
-128 -135 -35 -36 -74 -78 -87 -95 l-23 -29 47 -55 c26 -31 54 -63 62 -72 8
-8 26 -29 39 -45 47 -56 250 -291 266 -308 5 -6 38 -45 73 -86 82 -98 105
-124 177 -205 33 -37 62 -72 64 -77 1 -5 13 -19 25 -32 11 -13 37 -41 56 -64
19 -23 61 -69 92 -103 32 -34 60 -69 63 -78 2 -9 14 -22 25 -29 18 -11 22 -9
40 20 10 18 18 36 17 39 -1 3 4 13 11 22 13 16 20 28 78 137 16 30 32 57 36
58 5 2 8 10 8 17 0 8 7 21 16 29 8 9 13 16 10 16 -5 0 4 18 53 103 10 17 27
48 37 67 11 19 21 37 24 40 3 3 17 28 31 55 41 79 91 169 101 182 5 7 7 17 3
23 -3 5 -2 10 4 10 6 0 18 17 28 38 9 20 19 39 22 42 7 6 31 50 101 184 29 55
72 132 95 172 24 40 46 81 49 91 13 41 140 267 216 383 86 131 204 290 257
345 6 7 30 33 52 59 23 26 41 44 41 40 0 -4 9 5 21 20 23 30 20 61 -10 105 -9
14 -23 39 -31 54 -41 82 -135 138 -261 156 -81 11 -116 11 -229 0z"/>
<path d="M4260 10430 c0 -5 -6 -7 -14 -4 -31 12 -193 -91 -232 -148 -10 -15
-22 -25 -26 -22 -4 3 -15 -8 -25 -23 -10 -15 -23 -32 -30 -38 -7 -5 -24 -39
-39 -75 -36 -89 -40 -221 -10 -284 29 -59 94 -153 136 -196 19 -20 46 -51 60
-70 14 -19 36 -43 48 -54 13 -12 49 -52 80 -91 32 -38 64 -77 72 -86 8 -9 33
-36 56 -60 62 -68 336 -387 364 -425 14 -18 31 -34 38 -34 7 0 11 -4 8 -8 -3
-5 10 -24 29 -42 19 -19 35 -39 35 -44 0 -6 14 -20 30 -31 16 -11 30 -25 30
-31 0 -7 16 -26 35 -43 19 -17 35 -33 35 -36 -1 -9 144 -175 153 -175 4 0 7
-6 7 -12 0 -7 32 -46 70 -87 39 -41 70 -78 70 -81 0 -4 15 -22 33 -41 35 -36
252 -287 557 -644 38 -44 166 -192 285 -330 119 -137 219 -257 223 -265 3 -8
29 -40 58 -70 97 -103 203 -226 266 -310 14 -19 63 -73 107 -120 45 -47 81
-88 81 -92 0 -4 12 -20 28 -36 15 -16 45 -50 67 -76 22 -26 56 -64 75 -84 19
-20 53 -59 75 -86 22 -27 61 -72 86 -100 62 -69 161 -186 157 -186 -2 0 18
-24 46 -52 27 -29 74 -83 105 -119 173 -205 210 -248 250 -289 25 -25 60 -65
79 -90 18 -25 61 -76 95 -113 34 -37 64 -74 67 -81 5 -13 88 -108 145 -166 14
-14 25 -29 25 -33 0 -5 14 -20 30 -34 17 -13 30 -29 30 -34 0 -5 17 -26 38
-47 20 -21 53 -57 72 -81 19 -23 49 -58 65 -77 17 -18 39 -45 50 -59 11 -15
38 -46 60 -69 22 -24 58 -64 80 -90 22 -26 49 -58 60 -70 11 -13 34 -39 50
-60 37 -45 75 -89 126 -143 21 -23 39 -44 39 -47 0 -2 12 -18 28 -34 118 -126
228 -252 219 -252 -3 0 9 -15 26 -33 56 -59 142 -157 145 -167 2 -6 22 -29 45
-53 23 -24 62 -67 87 -97 25 -29 50 -58 55 -64 6 -6 22 -27 36 -46 15 -19 43
-51 63 -70 20 -19 36 -39 36 -43 0 -4 10 -18 23 -30 12 -12 36 -40 52 -62 16
-22 48 -59 70 -81 41 -43 91 -100 126 -144 21 -28 76 -91 129 -149 19 -22 49
-56 65 -77 17 -20 48 -56 70 -80 22 -23 49 -54 60 -70 11 -15 40 -48 63 -73
24 -25 53 -59 65 -74 12 -15 36 -43 52 -61 17 -19 46 -53 65 -77 19 -24 45
-53 58 -66 12 -12 22 -24 22 -27 0 -2 19 -24 43 -49 59 -63 97 -107 97 -111 0
-2 15 -20 33 -39 28 -31 58 -65 115 -132 9 -11 26 -27 36 -35 19 -15 19 -14 3
17 -9 17 -21 35 -27 38 -6 4 -8 10 -5 15 3 5 -1 23 -10 40 -23 44 -23 92 0
209 4 20 46 113 54 121 4 3 19 23 36 45 16 22 35 44 42 48 7 4 27 21 44 36 28
26 101 67 154 86 29 11 62 14 141 14 80 0 120 -9 170 -38 19 -11 34 -17 34
-13 0 4 -23 32 -51 62 -27 30 -58 66 -67 80 -9 14 -25 31 -35 38 -9 7 -35 37
-56 65 -21 29 -54 69 -72 89 -19 20 -47 52 -64 71 -16 20 -46 53 -65 75 -19
21 -49 56 -66 78 -18 21 -42 51 -55 65 -13 14 -40 45 -59 69 -19 23 -51 60
-70 81 -19 21 -49 55 -67 76 -17 21 -45 54 -62 73 -17 19 -31 40 -31 47 0 6
-8 14 -18 17 -10 3 -25 18 -35 33 -9 16 -38 51 -64 79 -26 28 -64 70 -83 94
-19 23 -55 62 -79 86 -24 24 -40 44 -36 44 4 0 -3 9 -16 20 -13 10 -21 19 -17
20 5 0 -13 20 -40 45 -26 25 -43 45 -38 45 4 0 -6 12 -23 27 -17 15 -31 31
-31 35 0 5 -17 25 -37 46 -21 21 -47 50 -58 65 -11 15 -36 44 -55 65 -19 22
-51 58 -70 81 -19 23 -50 57 -67 75 -18 19 -33 37 -33 40 0 4 -15 22 -32 40
-18 19 -46 50 -63 71 -16 20 -42 49 -56 63 -14 15 -42 48 -61 74 -20 25 -48
60 -64 76 -50 51 -74 80 -74 87 0 3 -20 26 -45 49 -25 24 -45 47 -45 50 0 4
-10 18 -22 31 -13 13 -39 42 -58 65 -19 22 -46 54 -60 70 -14 16 -41 47 -60
70 -53 63 -156 181 -192 221 -10 10 -18 21 -18 24 0 3 -19 25 -42 49 -24 24
-56 60 -73 81 -35 45 -78 93 -122 142 -18 19 -33 38 -33 42 0 3 -9 13 -20 21
-11 8 -20 18 -20 23 0 4 -19 28 -42 52 -24 25 -54 59 -68 76 -14 17 -44 51
-68 75 -23 24 -39 44 -36 44 3 0 -8 14 -26 30 -18 17 -29 30 -26 30 4 0 -8 15
-26 34 -18 19 -44 49 -58 67 -14 18 -41 50 -60 70 -19 20 -48 54 -65 75 -16
21 -41 51 -55 65 -14 15 -45 50 -70 79 -25 29 -61 70 -80 93 -19 22 -44 50
-55 61 -11 12 -32 37 -46 56 -15 19 -43 53 -63 75 -21 22 -49 55 -64 74 -15
19 -32 39 -37 45 -6 6 -53 61 -105 121 -52 61 -107 122 -122 138 -15 15 -28
30 -28 33 0 5 -34 44 -87 101 -13 13 -23 26 -23 28 0 4 -20 26 -107 122 -13
13 -23 26 -23 29 0 4 -19 26 -100 115 -14 15 -41 47 -60 70 -19 24 -52 60 -72
81 -21 21 -34 38 -30 38 3 0 -8 13 -26 29 -17 17 -32 33 -32 36 0 3 -17 24
-37 47 -62 66 -96 105 -128 144 -16 21 -45 52 -62 71 -18 18 -33 37 -33 42 0
4 -10 16 -22 28 -33 29 -87 93 -80 93 4 0 -12 18 -36 40 -23 22 -39 40 -35 40
4 0 -3 11 -17 24 -36 35 -397 453 -575 665 -53 64 -352 409 -424 491 -32 36
-81 93 -110 128 -28 34 -56 62 -61 62 -6 0 -10 6 -10 13 0 8 -33 47 -72 88
-40 41 -86 93 -102 114 -16 22 -37 48 -45 57 -9 9 -20 23 -26 30 -21 28 -151
173 -160 180 -5 4 -7 8 -3 8 3 0 -11 19 -33 43 -21 23 -64 72 -96 108 -194
222 -214 240 -293 268 -43 16 -210 24 -210 11z m1076 -1231 c30 -18 54 -37 54
-43 0 -5 7 -14 14 -20 8 -6 16 -18 18 -26 2 -8 9 -21 16 -28 6 -7 13 -23 13
-35 3 -41 6 -65 12 -81 3 -8 2 -18 -4 -21 -5 -4 -7 -11 -3 -16 3 -5 0 -26 -7
-47 -7 -20 -11 -38 -10 -40 1 -1 -5 -15 -13 -30 -23 -44 -70 -85 -132 -117
-48 -24 -70 -29 -121 -28 -56 2 -137 29 -153 53 -3 4 -16 13 -28 19 -13 7 -22
15 -19 17 2 3 -9 19 -24 35 -16 17 -26 35 -23 40 3 5 0 9 -6 9 -7 0 -10 7 -6
15 3 8 2 15 -3 15 -4 0 -7 15 -6 33 1 17 -2 42 -7 55 -5 15 -4 21 2 17 7 -4 7
3 0 19 -6 17 -6 26 0 26 6 0 9 3 8 8 -1 4 2 24 6 45 20 94 153 167 294 162 62
-3 82 -8 128 -36z m1762 -2073 c17 -4 32 -12 32 -17 0 -5 9 -9 19 -9 11 0 21
-3 23 -8 2 -4 16 -17 32 -30 16 -12 25 -22 20 -22 -5 0 -2 -5 6 -10 8 -5 15
-13 15 -17 1 -4 6 -18 13 -30 7 -12 13 -35 15 -50 2 -16 6 -34 10 -40 9 -15 0
-98 -13 -123 -6 -11 -8 -20 -4 -20 3 0 -1 -11 -10 -25 -9 -14 -13 -25 -9 -25
5 0 3 -4 -2 -8 -6 -4 -25 -24 -42 -45 -18 -20 -35 -37 -38 -37 -3 1 -27 -9
-53 -21 -62 -28 -150 -29 -212 -1 -40 18 -120 83 -120 97 0 3 -9 18 -20 33
-25 33 -32 61 -32 127 -1 46 2 71 16 133 7 33 63 100 100 119 72 38 165 48
254 29z m630 -726 c1 -1 7 -4 12 -5 6 -1 12 -3 15 -4 3 0 6 0 8 1 2 2 32 -22
73 -59 14 -13 37 -46 51 -75 23 -44 27 -66 27 -128 0 -64 -5 -84 -29 -129 -34
-62 -93 -114 -156 -137 -54 -19 -171 -14 -217 10 -69 36 -130 107 -139 161 -2
11 -6 27 -9 35 -11 26 -9 93 4 139 6 24 10 46 8 49 -3 2 4 13 14 25 11 11 17
23 15 27 -2 4 7 13 20 20 14 7 25 17 25 22 0 4 6 8 13 8 6 0 25 7 41 15 16 9
31 13 33 11 3 -2 15 2 28 8 20 10 153 15 163 6z m663 -740 c47 -20 95 -58 98
-75 0 -5 8 -18 16 -27 8 -10 13 -18 10 -18 -2 0 3 -16 11 -35 8 -19 11 -35 8
-35 -4 0 -2 -6 3 -12 14 -18 4 -158 -11 -158 -5 0 -6 -3 -3 -6 8 -8 -26 -58
-68 -100 -75 -77 -200 -102 -293 -59 -63 29 -127 92 -155 153 -32 72 -29 192
7 266 30 61 58 85 126 109 67 23 197 22 251 -3z m547 -700 c1 -1 11 -4 22 -5
11 -1 23 -4 28 -5 4 -1 10 -2 15 -1 4 0 7 -4 7 -11 0 -6 3 -9 6 -5 15 14 112
-89 141 -150 36 -77 33 -128 -12 -218 -16 -30 -32 -55 -37 -55 -4 0 -8 -6 -8
-12 -1 -16 -86 -81 -106 -81 -8 0 -14 -4 -14 -7 0 -17 -157 -16 -177 1 -2 1
-6 2 -10 4 -49 13 -127 83 -150 135 -11 24 -27 73 -25 77 0 2 -3 16 -8 32 -4
16 -5 32 -2 36 3 3 8 18 9 33 2 15 4 33 5 40 1 6 4 12 8 12 4 0 16 19 28 43
36 72 102 118 186 131 22 4 41 8 43 10 4 3 46 0 51 -4z m637 -725 c81 -30 172
-101 201 -156 36 -71 34 -181 -6 -259 -57 -111 -228 -175 -342 -129 -199 79
-253 318 -104 460 82 78 180 111 251 84z m702 -750 c24 -9 51 -27 62 -40 10
-14 21 -21 25 -18 3 3 6 -1 6 -11 0 -9 5 -14 10 -11 6 3 10 1 10 -5 0 -7 9
-25 21 -41 11 -16 18 -29 15 -29 -3 0 1 -17 7 -37 14 -40 16 -91 6 -108 -4 -5
-9 -27 -13 -47 -4 -21 -12 -38 -18 -38 -6 0 -8 -3 -5 -6 6 -6 -53 -82 -60 -77
-1 1 -13 -8 -27 -20 -32 -30 -110 -53 -166 -50 -76 4 -90 7 -90 16 0 5 -6 7
-14 4 -8 -3 -17 1 -20 9 -3 9 -10 12 -16 9 -5 -3 -10 -1 -10 6 0 7 -3 10 -6 7
-8 -8 -67 60 -88 100 -22 42 -30 162 -15 224 11 49 82 143 100 132 5 -3 9 -1
9 5 0 10 75 37 120 43 45 7 114 -1 157 -17z"/>
<path d="M8030 10201 c0 -5 -25 -35 -56 -66 -60 -62 -65 -87 -14 -80 16 2 30
-1 30 -6 0 -6 6 -9 13 -8 6 1 26 -4 42 -11 17 -7 33 -13 38 -12 4 1 7 -2 7 -8
0 -5 5 -10 11 -10 14 0 6 67 -17 150 -13 46 -21 60 -35 60 -11 0 -19 -4 -19
-9z"/>
<path d="M7856 9966 c-40 -23 -99 -96 -148 -181 -4 -6 13 -11 40 -12 53 -1 76
-6 112 -20 14 -6 28 -9 33 -6 4 2 7 -1 7 -6 0 -6 5 -11 11 -11 17 0 39 -27 39
-49 0 -32 -40 -36 -91 -11 -31 16 -60 22 -105 22 -98 0 -121 -20 -198 -164
l-36 -68 57 0 c94 0 197 -35 206 -70 3 -11 -1 -27 -7 -36 -14 -19 -28 -17
-120 16 -51 18 -66 20 -104 10 -61 -15 -87 -34 -122 -91 -16 -27 -29 -50 -28
-52 0 -1 -9 -21 -21 -44 -11 -23 -21 -44 -21 -45 0 -2 28 -3 63 -4 74 0 150
-27 178 -62 19 -25 19 -26 1 -44 -18 -19 -20 -18 -97 7 -83 28 -117 28 -179
-1 -31 -16 -78 -73 -82 -101 -2 -8 -14 -32 -28 -54 -14 -21 -26 -43 -26 -49 0
-5 21 -10 46 -10 46 0 135 -18 144 -29 3 -4 17 -12 31 -18 20 -8 26 -18 25
-39 -1 -38 -22 -41 -91 -15 -102 38 -193 23 -237 -39 -16 -21 -28 -43 -28 -49
0 -6 -5 -11 -12 -11 -6 0 -8 -3 -5 -7 4 -3 3 -11 -2 -17 -9 -11 -51 -85 -51
-89 0 -1 24 -3 53 -4 47 -2 98 -8 105 -13 1 -2 6 -3 10 -4 5 0 25 -10 45 -21
40 -21 49 -53 22 -75 -13 -10 -22 -10 -53 4 -21 10 -47 19 -57 21 -11 2 -20 4
-20 6 0 1 -18 3 -40 4 -45 3 -113 -21 -132 -44 -22 -28 -88 -146 -85 -153 1
-5 -2 -8 -7 -8 -5 0 -11 -9 -14 -21 -4 -14 -2 -18 6 -12 11 8 77 9 102 3 6 -2
15 -4 20 -5 6 -2 13 -4 18 -5 4 -1 10 -3 15 -4 24 -6 94 -49 99 -62 3 -8 -2
-23 -12 -34 -14 -15 -22 -17 -48 -8 -18 6 -37 15 -43 19 -6 5 -25 9 -42 11
-18 1 -32 5 -32 9 0 7 -18 5 -65 -5 -19 -4 -93 -41 -91 -46 2 -13 -34 -51 -43
-45 -6 3 -11 0 -11 -7 0 -20 130 -150 177 -177 31 -18 40 -29 37 -44 -2 -11 1
-26 7 -34 7 -7 9 -13 6 -13 -2 0 16 -22 42 -49 25 -27 62 -68 81 -91 34 -42
59 -70 111 -129 15 -16 31 -35 35 -43 5 -7 19 -21 31 -31 21 -18 21 -18 51 25
17 24 41 54 54 68 12 13 22 28 20 32 -1 5 3 8 8 8 6 0 43 26 83 58 39 32 88
69 107 82 77 52 218 171 273 229 123 132 282 395 291 482 3 24 7 69 10 99 3
30 10 56 15 58 5 2 7 10 5 17 -3 8 1 45 10 83 8 37 18 93 21 123 4 29 9 72 11
94 3 22 4 67 3 100 0 33 -1 76 0 95 2 145 2 200 -3 230 -3 19 -7 78 -10 130
-2 52 -8 104 -12 114 -6 15 -4 17 7 11 11 -7 12 -6 3 6 -7 8 -12 53 -13 100
-1 47 -4 96 -7 110 -3 13 -7 35 -10 49 -12 71 -24 96 -46 97 -11 1 -30 11 -43
23 -12 11 -25 17 -28 13 -4 -3 -7 0 -7 7 0 7 -3 10 -7 7 -3 -4 -12 -2 -20 5
-18 15 -124 18 -147 4z"/>
<path d="M14389 9295 c-3 -2 -43 -6 -90 -9 -195 -12 -272 -18 -419 -36 -162
-20 -581 -62 -637 -64 -18 0 -33 -4 -33 -7 0 -3 -59 -6 -131 -7 -75 0 -136 -5
-143 -11 -7 -6 -16 -8 -20 -4 -3 4 16 -45 44 -108 126 -282 125 -280 192 -281
67 0 208 11 219 18 28 17 57 -29 113 -173 32 -81 65 -164 74 -183 8 -19 15
-38 14 -42 -1 -5 2 -8 7 -8 21 0 -5 -53 -38 -78 -20 -15 -39 -31 -43 -37 -5
-7 -8 -7 -8 0 0 6 -5 2 -11 -7 -5 -10 -15 -18 -22 -18 -10 0 -31 -15 -85 -61
-9 -7 -11 -22 -7 -42 7 -38 47 -160 55 -167 3 -3 7 -14 8 -25 3 -17 22 -62 55
-135 7 -14 20 -35 31 -47 18 -21 19 -21 39 -3 11 11 23 17 27 15 5 -3 22 9 40
25 18 17 34 30 37 30 6 0 70 49 128 98 66 55 69 57 77 55 5 -2 8 1 8 5 0 5 66
60 146 123 81 63 170 133 200 157 29 23 55 42 58 42 3 0 14 8 24 18 10 9 30
26 46 37 15 11 40 30 54 43 15 13 56 44 92 69 36 26 86 64 113 86 26 21 47 36
47 33 0 -3 18 13 41 35 45 44 45 46 4 139 -64 144 -175 409 -173 413 0 1 -9
21 -21 45 -15 30 -33 48 -56 58 -36 15 -49 17 -56 9z m-134 -475 c6 -9 -20
-31 -65 -56 -19 -10 -49 -32 -66 -47 -18 -16 -59 -45 -91 -65 -32 -20 -66 -45
-75 -55 -10 -11 -18 -16 -18 -11 0 5 -5 1 -11 -8 -5 -10 -16 -18 -23 -18 -7 0
-21 -9 -31 -20 -10 -11 -24 -20 -31 -20 -7 0 -19 -7 -27 -15 -13 -13 -18 -12
-40 5 -14 11 -28 31 -31 46 -4 14 -17 35 -29 47 -13 12 -23 31 -22 42 0 11 -6
30 -14 43 -18 29 -22 90 -8 99 13 8 60 13 177 19 170 8 266 15 315 22 51 8 82
5 90 -8z"/>
<path d="M963 9089 c-37 -29 -81 -64 -97 -78 -35 -32 -146 -176 -146 -190 0
-6 -7 -27 -16 -48 -51 -116 -57 -161 -45 -311 15 -184 43 -282 123 -427 12
-22 59 -76 104 -121 83 -83 182 -142 284 -169 3 -1 12 -4 20 -7 84 -31 254
-52 352 -44 76 6 249 58 256 77 2 5 8 9 14 9 18 0 103 64 158 119 66 67 125
144 147 191 4 8 13 21 20 28 7 7 16 25 19 40 3 15 17 59 30 99 35 103 33 190
-8 393 -19 93 -103 250 -134 250 -8 0 -14 6 -14 14 0 27 -38 28 -82 4 -24 -13
-45 -26 -48 -29 -3 -3 -40 -31 -82 -63 -43 -31 -78 -61 -78 -67 0 -5 8 -24 17
-42 9 -18 18 -34 18 -37 0 -3 6 -15 13 -27 7 -13 9 -23 5 -23 -4 0 -2 -4 6 -9
14 -9 19 -118 8 -187 -4 -27 -77 -180 -77 -162 0 4 -18 -12 -40 -35 -36 -40
-109 -86 -148 -95 -41 -8 -153 -9 -158 -1 -3 5 -10 7 -15 3 -5 -3 -16 0 -24 6
-8 7 -15 9 -15 5 0 -4 -7 -2 -15 5 -8 7 -15 9 -15 4 0 -5 -4 -4 -8 3 -4 6 -14
13 -22 15 -15 3 -74 53 -117 98 -26 28 -64 103 -67 135 -1 11 -5 25 -8 30 -8
14 -3 173 7 213 4 17 11 32 16 32 5 0 9 7 9 15 0 9 7 18 15 21 8 4 13 10 10
14 -3 5 5 16 17 24 12 9 19 16 16 16 -4 0 -4 10 1 23 6 15 3 34 -12 62 -11 22
-19 41 -18 43 1 1 -5 18 -14 37 -8 20 -16 43 -17 53 -2 9 -6 19 -10 22 -4 3
-8 17 -10 30 -5 32 -36 90 -48 90 -5 0 -39 -23 -77 -51z"/>
<path d="M4934 8347 c-22 -29 -46 -59 -56 -68 -9 -9 -19 -25 -22 -36 -6 -18 1
-18 132 -17 75 1 139 2 141 3 3 0 -6 12 -19 26 -13 14 -21 25 -17 25 3 0 -16
21 -43 46 -27 26 -48 50 -45 54 3 4 -4 10 -14 13 -14 3 -29 -9 -57 -46z"/>
<path d="M11260 8179 c0 -3 -11 -5 -25 -4 -14 2 -27 -1 -30 -5 -3 -5 -14 -7
-25 -5 -11 2 -20 0 -20 -5 0 -5 -8 -8 -17 -8 -22 2 -99 -33 -132 -58 -65 -51
-149 -144 -170 -189 -32 -67 -31 -127 4 -196 27 -51 122 -154 175 -188 235
-149 399 -299 505 -461 69 -104 185 -325 185 -352 0 -9 3 -18 8 -20 8 -3 81
-215 89 -257 2 -13 7 -29 11 -35 6 -11 12 -38 13 -66 0 -8 3 -22 6 -30 3 -8 8
-24 10 -35 10 -60 78 -104 163 -106 39 -1 110 19 110 32 0 7 50 2 58 -6 2 -2
5 -11 6 -21 4 -26 -60 -73 -109 -81 -11 -1 -32 -6 -47 -9 -15 -3 -36 -3 -45 1
-10 5 -22 7 -27 6 -4 -1 -14 4 -22 10 -8 6 -14 9 -14 5 0 -4 -13 0 -30 9 -16
8 -31 15 -34 15 -2 0 -4 -28 -4 -63 1 -34 -5 -73 -11 -86 -7 -12 -10 -29 -7
-36 3 -8 1 -17 -5 -21 -6 -3 -8 -12 -5 -19 2 -7 0 -17 -6 -23 -11 -11 13 -64
46 -100 37 -39 102 -65 150 -60 48 6 81 -8 81 -34 0 -27 -17 -37 -68 -44 -51
-7 -158 24 -187 55 -9 9 -27 26 -41 39 l-26 23 -57 -88 c-31 -48 -66 -100 -77
-114 -21 -26 -21 -28 -4 -85 22 -75 74 -130 133 -140 31 -5 42 -12 46 -29 14
-55 -16 -67 -95 -40 -57 20 -122 85 -149 147 l-21 49 -38 -33 c-20 -18 -69
-53 -109 -78 -57 -36 -73 -52 -81 -80 -24 -79 -1 -150 68 -213 47 -43 49 -49
21 -77 -55 -55 -172 93 -174 222 -1 32 -3 58 -4 58 -2 0 -29 -8 -60 -17 -32
-9 -61 -16 -65 -15 -5 1 -27 -3 -50 -9 -23 -7 -52 -11 -64 -11 -24 2 -54 -33
-79 -94 -24 -58 -23 -94 8 -151 27 -50 27 -52 10 -73 -13 -17 -24 -21 -40 -16
-12 4 -22 14 -22 22 0 8 -4 14 -10 14 -5 0 -10 7 -10 15 0 8 -4 15 -8 15 -4 0
-9 17 -10 37 -2 21 -6 39 -11 41 -4 1 -4 26 1 55 12 68 12 68 27 95 7 13 10
27 6 30 -4 4 -61 8 -128 8 -115 2 -123 1 -150 -22 -16 -13 -25 -24 -21 -24 4
0 0 -8 -8 -17 -20 -24 -41 -85 -40 -118 1 -19 11 -54 21 -73 20 -38 -2 -79
-37 -68 -11 4 -28 23 -38 44 -22 46 -26 158 -7 188 7 11 10 23 7 26 -3 4 2 15
12 27 35 41 28 47 -80 61 -160 21 -170 20 -212 -25 -56 -62 -77 -139 -54 -199
12 -32 -15 -58 -47 -45 -13 4 -24 13 -24 19 -3 19 -4 25 -10 35 -8 13 -5 93 6
130 10 36 62 115 75 115 6 0 10 4 10 9 0 5 -33 22 -72 37 -40 15 -91 36 -112
47 -35 17 -46 18 -90 8 -83 -19 -136 -77 -136 -148 0 -57 -14 -83 -45 -83 -43
0 -53 46 -29 132 18 61 54 110 117 154 l29 20 -69 46 c-37 25 -86 59 -107 76
-35 26 -43 28 -80 20 -91 -20 -137 -64 -158 -148 -13 -49 -43 -67 -70 -42 -10
8 -18 22 -18 30 0 68 78 175 157 215 l44 23 -93 83 -93 82 -46 -6 c-26 -3 -60
-12 -76 -20 -31 -16 -76 -62 -81 -85 -15 -67 -42 -91 -85 -74 -30 11 14 138
63 181 14 13 50 35 80 50 30 15 57 28 59 30 2 1 -9 13 -25 25 -16 12 -56 48
-89 80 -51 50 -65 58 -97 58 -47 0 -95 -19 -131 -52 -26 -24 -73 -118 -59
-118 4 0 0 -5 -9 -10 -8 -5 -24 -7 -35 -5 -10 2 -23 4 -27 4 -12 1 -2 78 12
94 6 8 8 17 4 20 -3 4 -1 7 5 7 7 0 12 5 12 12 0 16 78 88 95 88 8 0 15 5 15
10 0 6 8 10 18 10 49 1 39 18 -55 100 -53 46 -101 83 -107 83 -46 -2 -156 -46
-156 -62 0 -5 -9 -18 -20 -31 -11 -12 -22 -38 -26 -57 -8 -41 -39 -62 -60 -41
-17 17 -26 57 -16 72 4 6 7 13 8 16 2 12 18 45 24 50 3 3 13 17 23 33 10 15
24 27 32 27 8 0 15 3 15 8 0 9 54 37 88 47 22 6 19 11 -47 73 -38 37 -80 75
-92 86 -26 21 -78 29 -96 14 -7 -6 -13 -8 -13 -4 0 4 -15 -1 -32 -11 -18 -9
-35 -17 -38 -16 -10 3 -52 -65 -65 -103 -14 -41 -29 -54 -56 -47 -29 8 -33 46
-10 98 21 47 67 107 86 113 6 2 17 10 26 17 8 8 24 16 35 18 10 1 27 7 36 13
15 8 7 19 -60 77 -42 37 -84 74 -93 83 -12 11 -29 14 -65 9 -27 -3 -51 -10
-52 -15 -2 -6 -8 -8 -13 -4 -5 3 -9 0 -9 -5 0 -6 -4 -10 -8 -9 -17 6 -62 -53
-78 -101 -9 -28 -20 -49 -24 -46 -5 3 -12 0 -16 -6 -4 -8 -9 -7 -15 2 -7 11
-9 11 -9 -2 0 -14 23 -46 80 -110 14 -15 43 -49 65 -75 22 -25 60 -68 84 -95
25 -27 50 -58 58 -68 7 -11 27 -35 45 -54 18 -19 49 -53 68 -77 19 -23 50 -57
67 -76 18 -19 30 -34 28 -34 -3 0 3 -8 13 -18 9 -10 37 -42 62 -71 25 -29 55
-64 68 -77 12 -13 22 -25 22 -28 0 -2 15 -20 33 -39 17 -19 52 -58 77 -87 25
-29 56 -64 70 -77 14 -12 21 -23 16 -23 -4 0 6 -13 24 -30 18 -16 30 -30 27
-30 -3 0 13 -20 36 -44 76 -80 108 -116 101 -116 -3 0 11 -16 32 -35 22 -19
35 -35 31 -35 -5 0 10 -17 32 -38 23 -21 41 -41 41 -45 0 -4 9 -18 20 -30 49
-52 87 -97 115 -132 17 -21 50 -60 75 -86 25 -26 59 -64 75 -85 17 -20 42 -50
58 -66 15 -16 27 -31 27 -33 0 -2 12 -18 28 -34 25 -27 53 -60 119 -140 15
-18 43 -49 61 -67 17 -18 32 -37 32 -41 0 -5 16 -23 35 -40 19 -18 35 -35 35
-39 0 -3 13 -20 30 -37 16 -18 42 -47 58 -65 24 -27 47 -39 113 -57 46 -13 86
-22 90 -19 4 2 10 0 13 -5 5 -7 95 -23 156 -26 8 -1 24 -4 35 -8 29 -9 194
-27 305 -33 52 -2 140 -8 195 -13 55 -5 208 -7 340 -6 272 3 315 5 315 15 0 4
14 5 30 2 37 -5 218 26 226 39 3 5 9 7 14 4 11 -7 90 14 104 27 6 4 16 8 24 8
35 0 231 86 245 108 4 6 13 12 19 12 12 0 127 81 161 113 13 12 38 36 57 54
54 48 161 173 227 263 47 65 84 134 87 164 1 12 5 27 9 32 20 33 55 251 52
329 -3 95 -17 215 -26 221 -4 2 -6 10 -3 18 3 7 0 33 -6 57 -6 24 -12 53 -14
64 -10 63 -30 135 -38 135 -5 0 -7 4 -4 9 8 12 -12 85 -57 219 -19 56 -33 102
-31 102 3 0 -2 12 -10 28 -15 28 -27 59 -32 79 -1 7 -9 27 -18 44 -9 18 -16
38 -16 46 0 7 -4 13 -10 13 -5 0 -7 7 -4 15 4 8 1 15 -5 15 -6 0 -11 8 -11 18
0 10 -3 22 -7 26 -5 4 -8 11 -8 14 -1 4 -11 29 -23 56 -12 27 -22 50 -22 52 0
2 -16 39 -36 81 -49 105 -58 127 -56 136 1 4 -3 7 -9 7 -5 0 -7 5 -4 10 3 6 1
10 -6 10 -7 0 -10 3 -6 6 3 4 -1 13 -9 21 -8 8 -12 19 -9 24 4 5 2 9 -3 9 -5
0 -13 10 -17 23 -4 12 -8 24 -9 27 -12 34 -49 104 -61 116 -8 8 -15 24 -15 35
0 10 -5 19 -11 19 -5 0 -7 5 -4 10 3 6 2 10 -3 10 -10 0 -36 58 -33 73 0 4 -4
7 -10 7 -5 0 -7 5 -4 10 3 6 1 10 -4 10 -6 0 -11 5 -11 11 0 6 -9 23 -20 39
-11 15 -17 30 -13 34 3 3 1 6 -6 6 -7 0 -9 5 -6 10 3 6 1 10 -5 10 -6 0 -8 5
-5 10 3 6 1 10 -4 10 -6 0 -11 7 -11 15 0 8 -4 15 -9 15 -10 0 -27 39 -23 53
1 4 -3 7 -10 7 -6 0 -9 3 -5 6 3 3 1 11 -4 18 -27 32 -67 101 -63 108 3 4 0 8
-5 8 -6 0 -11 7 -11 15 0 8 -5 15 -11 15 -5 0 -8 4 -5 9 4 5 3 11 -1 13 -5 1
-16 19 -25 38 -20 40 -61 113 -68 120 -3 3 -12 19 -20 35 -8 17 -17 32 -20 35
-6 6 -50 86 -65 117 -5 13 -13 23 -17 23 -5 0 -8 7 -8 15 0 8 -3 15 -7 15 -5
0 -17 18 -27 40 -10 22 -27 48 -37 59 -11 11 -19 24 -19 29 0 4 -14 19 -32 32
-27 20 -44 23 -130 25 -54 1 -98 -2 -98 -6z"/>
<path d="M8090 8125 c-14 -25 -28 -45 -32 -45 -5 0 -8 -4 -8 -10 0 -5 -16 -31
-35 -57 -20 -27 -46 -61 -58 -78 -43 -58 -177 -183 -272 -254 -33 -25 -70 -54
-82 -66 -12 -11 -53 -43 -92 -70 -38 -28 -70 -55 -71 -62 0 -6 42 -39 93 -74
50 -34 124 -85 164 -111 39 -27 136 -98 215 -158 l143 -109 22 27 c13 15 23
33 23 40 0 6 5 12 10 12 6 0 10 7 10 15 0 8 5 15 10 15 6 0 10 6 10 13 0 7 8
22 18 33 10 10 19 24 20 29 1 6 9 18 17 28 8 9 12 17 9 17 -5 0 10 20 56 77 6
7 10 15 10 19 0 4 11 17 26 30 14 13 21 24 17 24 -4 1 1 8 13 18 11 9 21 20
22 25 2 9 18 30 54 68 14 16 23 29 20 29 -4 0 12 18 36 40 23 22 42 43 42 47
0 11 280 278 298 284 17 6 19 34 2 34 -8 0 -21 4 -28 9 -12 7 -73 16 -116 17
-11 0 -29 5 -40 12 -12 7 -34 13 -51 14 -36 3 -90 10 -90 13 0 1 -18 4 -40 6
-21 3 -44 9 -50 14 -7 6 -15 7 -18 3 -4 -3 -12 -1 -19 5 -7 6 -16 11 -20 11
-5 1 -9 1 -10 2 -2 0 -14 2 -27 5 -14 2 -30 9 -36 14 -7 5 -15 7 -18 3 -4 -3
-7 -1 -7 6 0 7 -4 9 -10 6 -5 -3 -10 -1 -10 4 0 6 -5 11 -11 11 -6 0 -24 14
-39 30 -15 17 -32 30 -37 30 -5 0 -19 -20 -33 -45z"/>
<path d="M4875 8152 c-2 -2 -25 -5 -51 -7 -36 -2 -51 -8 -66 -26 -26 -33 -128
-188 -128 -194 0 -2 15 -2 33 0 27 4 209 14 287 16 33 0 194 -10 246 -16 36
-4 43 -2 49 18 4 12 8 24 9 27 1 3 10 20 19 38 17 31 17 34 -2 60 -22 31 -71
78 -77 75 -2 -2 -5 -2 -6 -2 -2 1 -52 3 -113 5 -60 2 -129 5 -153 7 -23 2 -44
1 -47 -1z"/>
<path d="M9410 8108 c0 -4 -10 -6 -22 -4 -13 2 -31 -1 -41 -6 -11 -5 -33 -11
-50 -13 -18 -2 -33 -4 -34 -5 -2 -2 -6 -3 -10 -4 -5 -2 -28 -9 -53 -16 -25 -7
-48 -14 -52 -14 -3 -1 -9 -4 -13 -8 -10 -10 12 -30 65 -58 25 -14 52 -30 61
-37 14 -12 48 -11 68 1 5 3 26 8 47 12 22 3 46 10 55 15 14 7 96 20 137 22 6
0 12 4 12 8 0 4 11 6 25 3 18 -3 25 0 25 11 0 8 -11 21 -25 27 -14 6 -25 14
-25 18 0 3 -19 17 -41 30 -40 22 -129 34 -129 18z"/>
<path d="M8994 7966 c-23 -12 -49 -30 -59 -39 -9 -9 -20 -17 -25 -17 -4 0 -31
-21 -59 -47 -28 -27 -64 -59 -81 -73 -17 -14 -37 -31 -43 -38 -7 -7 -25 -25
-42 -40 -85 -76 -250 -260 -279 -311 -5 -9 -15 -20 -23 -24 -7 -4 -13 -14 -13
-22 0 -8 -6 -18 -12 -22 -17 -11 -58 -69 -58 -83 0 -5 -4 -10 -10 -10 -5 0
-12 -11 -16 -25 -3 -14 -10 -25 -14 -25 -9 0 -59 -73 -62 -92 -2 -7 -10 -18
-18 -25 -8 -7 -10 -13 -5 -13 6 0 6 -3 0 -8 -6 -4 -21 -22 -34 -39 l-22 -33
39 -41 39 -42 29 39 c16 21 33 42 37 45 5 3 8 9 7 13 -1 4 12 23 28 41 17 18
28 36 25 39 -3 3 2 8 11 12 9 3 16 12 16 19 0 7 3 15 8 17 4 2 25 27 47 56 21
28 43 52 47 52 4 0 7 3 5 8 -1 4 7 17 18 29 11 12 45 49 75 83 30 34 72 78 93
98 87 84 136 129 173 159 21 17 49 39 61 50 12 10 36 29 54 43 17 14 39 32 48
40 9 9 33 26 54 39 20 12 37 27 37 32 0 6 5 7 10 4 6 -3 10 -2 10 3 0 5 8 13
18 16 32 13 62 31 62 38 0 5 8 8 17 8 14 0 12 4 -7 17 -14 9 -28 22 -32 27 -4
6 -8 7 -8 3 0 -5 -13 1 -29 12 -16 12 -34 21 -40 21 -6 0 -11 5 -11 11 0 5 -4
8 -9 5 -5 -4 -11 -2 -13 3 -1 5 -22 -1 -44 -13z"/>
<path d="M5341 7952 c-19 -36 -13 -48 33 -59 39 -9 43 -8 38 6 -3 9 -18 29
-33 45 -26 28 -27 29 -38 8z"/>
<path d="M9655 7931 c-5 -4 -77 -14 -120 -15 -16 -1 -32 -4 -36 -8 -3 -4 -29
-12 -59 -18 -29 -6 -56 -12 -58 -15 -7 -6 40 -44 56 -45 6 0 12 -3 12 -7 0 -8
56 -43 67 -42 3 0 9 -5 13 -11 5 -8 18 -9 46 -1 21 5 54 13 73 16 19 3 38 8
43 11 5 3 38 6 73 5 69 0 83 12 45 39 -11 8 -20 18 -20 21 0 4 -14 22 -32 39
-22 22 -42 33 -66 34 -18 1 -35 0 -37 -3z"/>
<path d="M4720 7849 c0 -4 -21 -6 -47 -5 -79 3 -95 -11 -142 -120 -22 -54 -39
-99 -37 -101 2 -2 68 3 147 11 79 8 218 13 308 12 l163 -2 11 25 c7 14 16 29
22 33 5 4 6 8 1 8 -4 0 -1 11 8 25 9 13 17 32 19 42 2 10 9 28 15 41 7 12 9
22 5 23 -4 0 -21 3 -38 5 -46 8 -435 10 -435 3z"/>
<path d="M5266 7790 c-14 -32 -36 -88 -39 -100 0 -3 -7 -16 -14 -30 -7 -13
-10 -26 -8 -29 3 -2 35 -10 72 -17 115 -22 155 -32 248 -62 86 -28 188 -68
248 -97 15 -7 27 -10 27 -7 0 4 -60 77 -134 163 l-134 157 -70 21 c-39 11 -82
21 -96 21 -14 0 -26 3 -26 8 0 4 -13 7 -30 7 -24 0 -32 -6 -44 -35z"/>
<path d="M9225 7817 c-37 -22 -140 -95 -164 -116 -13 -12 -27 -21 -30 -21 -5
0 -34 -24 -101 -83 -14 -12 -46 -38 -70 -57 -77 -62 -304 -294 -370 -380 -19
-25 -38 -46 -42 -48 -5 -2 -8 -10 -8 -18 0 -8 -7 -17 -15 -20 -8 -4 -15 -10
-15 -15 0 -8 -20 -35 -47 -64 -7 -8 -13 -18 -13 -24 0 -6 -4 -11 -9 -11 -5 0
-13 -9 -16 -20 -3 -11 -12 -26 -18 -33 -7 -7 -18 -23 -25 -36 -12 -20 -10 -25
15 -47 27 -23 53 -31 53 -16 0 4 17 26 38 48 20 23 45 53 55 65 41 56 333 359
345 359 4 0 18 12 31 25 13 14 27 25 33 25 5 0 6 5 3 10 -3 6 -1 10 5 10 12 0
102 69 108 83 2 4 8 7 14 7 6 0 29 15 52 33 23 19 56 42 74 52 17 11 32 22 32
26 0 4 14 12 30 19 17 7 30 16 30 21 0 5 5 9 11 9 6 0 23 9 38 20 15 10 65 38
111 60 45 23 78 45 74 49 -5 4 -29 23 -54 41 -25 19 -48 39 -52 45 -4 6 -8 6
-8 1 0 -6 -5 -5 -12 2 -15 15 -57 15 -83 -1z"/>
<path d="M9806 7722 c-2 -1 -23 -4 -47 -7 -110 -13 -129 -17 -129 -24 0 -4 30
-34 68 -65 l67 -57 60 6 c33 4 95 8 137 9 43 1 80 5 83 8 3 3 -10 19 -30 37
-20 17 -33 31 -30 31 3 0 -8 14 -25 30 -27 26 -39 31 -91 33 -34 1 -62 1 -63
-1z"/>
<path d="M9460 7643 c-159 -74 -436 -261 -608 -412 -108 -94 -316 -313 -392
-413 -14 -18 -35 -43 -47 -55 l-21 -22 23 -26 c13 -14 29 -25 35 -25 7 0 51
39 100 88 81 80 165 157 280 259 183 163 582 409 775 478 28 10 54 21 58 25 6
5 -136 132 -145 129 -2 0 -28 -12 -58 -26z"/>
<path d="M4722 7559 c-28 -4 -91 -10 -140 -13 -113 -9 -142 -15 -142 -30 0 -7
-20 -54 -45 -106 -25 -51 -43 -95 -41 -97 5 -5 35 -1 277 32 59 8 167 15 241
15 l134 0 14 38 c8 20 14 39 15 42 0 3 6 15 13 28 7 12 11 22 8 22 -3 0 1 12
9 26 25 48 16 51 -143 51 -81 -1 -171 -4 -200 -8z"/>
<path d="M5135 7474 c-16 -42 -29 -81 -27 -85 1 -5 -2 -9 -6 -9 -14 0 -10 -30
5 -31 7 -1 16 -2 21 -3 4 -2 34 -6 67 -10 61 -8 273 -59 310 -75 11 -5 49 -19
85 -31 36 -12 79 -28 95 -35 17 -8 59 -25 95 -40 84 -34 83 -33 233 -105 71
-34 130 -60 132 -58 1 1 5 13 9 24 5 18 -14 46 -99 145 l-106 123 -110 53
c-212 101 -480 190 -624 208 l-50 6 -30 -77z"/>
<path d="M9914 7431 l69 -70 139 -3 c76 -2 138 0 138 4 0 4 -29 36 -66 72
l-65 66 -142 0 -141 0 68 -69z"/>
<path d="M9635 7439 c-135 -54 -341 -166 -489 -264 -117 -78 -258 -186 -285
-219 -8 -9 -17 -16 -21 -16 -4 0 -25 -17 -47 -37 -105 -102 -180 -171 -203
-186 -13 -9 -21 -17 -17 -17 4 0 -9 -17 -28 -37 l-35 -37 22 -21 c13 -11 31
-28 40 -38 16 -17 18 -16 53 18 20 19 39 35 42 35 3 0 13 8 22 18 28 32 191
163 191 155 0 -4 5 0 11 9 14 24 198 157 321 231 223 136 540 278 663 299 16
3 7 16 -55 76 -41 39 -77 72 -80 72 -3 0 -50 -19 -105 -41z"/>
<path d="M7343 7374 c-15 -20 -28 -42 -29 -48 -1 -7 24 -41 56 -76 l58 -63 35
35 c19 20 49 42 66 49 17 8 31 16 31 19 0 8 -167 120 -179 120 -5 0 -22 -16
-38 -36z"/>
<path d="M10095 7280 c-39 -5 -40 -6 -17 -20 12 -8 22 -20 22 -25 0 -6 19 -29
43 -52 l43 -41 151 -4 c144 -3 150 -2 138 15 -7 10 -28 29 -46 43 -18 13 -29
24 -25 24 4 0 1 7 -8 15 -8 8 -19 15 -25 15 -5 0 -14 8 -19 17 -8 14 -28 17
-113 17 -57 1 -122 -1 -144 -4z"/>
<path d="M4600 7259 c-165 -20 -288 -43 -300 -56 -4 -4 -33 -56 -64 -115 l-57
-107 35 2 c20 1 36 6 36 11 0 4 11 6 25 4 14 -3 25 -2 25 2 0 6 49 15 140 25
14 1 32 6 41 9 10 4 23 6 30 5 8 -1 25 1 39 4 26 7 76 11 253 23 59 4 108 11
108 15 2 14 5 22 18 54 7 17 14 37 16 45 2 8 4 16 5 18 2 1 3 5 4 10 1 4 5 13
9 20 5 6 5 12 0 12 -4 0 -2 4 6 9 55 35 -129 40 -369 10z"/>
<path d="M5059 7264 c-1 -5 -1 -12 0 -16 0 -5 -4 -8 -11 -8 -6 0 -9 -3 -5 -6
3 -4 0 -21 -8 -39 -7 -19 -11 -36 -7 -39 3 -3 0 -6 -7 -6 -8 0 -11 -7 -7 -15
3 -8 2 -15 -3 -15 -10 0 -12 -50 -2 -51 3 0 44 -7 91 -15 47 -8 93 -15 103
-15 9 0 17 -4 17 -9 0 -5 6 -7 14 -4 19 7 244 -50 326 -83 8 -3 18 -5 23 -5 4
1 7 -3 7 -9 0 -5 5 -7 10 -4 6 3 10 3 10 -2 0 -4 12 -9 26 -10 15 0 29 -5 33
-10 3 -4 14 -9 24 -11 10 -2 38 -12 63 -23 25 -10 50 -19 55 -19 5 0 37 -13
71 -30 34 -16 67 -30 75 -30 7 0 13 -5 13 -11 0 -5 4 -8 9 -4 5 3 15 0 23 -7
20 -20 45 -20 51 -1 4 10 15 43 27 73 11 30 20 59 20 65 0 15 -130 82 -280
145 -69 29 -138 58 -155 66 -73 32 -333 114 -448 140 -46 11 -157 16 -158 8z"/>
<path d="M9875 7255 c-90 -23 -353 -138 -490 -213 -117 -65 -353 -217 -376
-244 -9 -10 -20 -18 -23 -18 -4 0 -13 -6 -20 -12 -7 -7 -28 -24 -46 -38 -44
-32 -186 -153 -227 -192 -37 -34 -39 -41 -19 -60 62 -60 116 -108 121 -108 4
0 36 26 72 58 36 31 69 56 74 55 4 -2 11 6 14 17 4 11 10 18 14 15 5 -2 26 13
47 35 21 21 42 36 46 34 5 -3 8 0 8 5 0 6 6 11 14 11 8 0 16 7 19 15 4 8 25
27 49 42 24 15 45 31 46 36 2 4 10 7 18 7 8 0 14 3 14 8 0 7 48 37 63 39 5 1
15 10 23 20 7 10 14 14 14 9 0 -6 6 -2 13 7 6 9 19 17 27 19 8 2 19 8 25 14
17 19 142 84 149 77 3 -4 6 -2 6 4 0 10 50 38 63 35 4 -1 15 4 23 12 7 8 38
23 67 34 29 11 82 34 116 51 35 17 67 29 70 26 4 -2 26 5 50 16 24 10 68 26
98 35 l55 16 -24 26 c-12 14 -40 44 -60 67 -21 22 -38 43 -38 48 0 10 -36 7
-95 -8z"/>
<path d="M3135 7244 c-27 -9 -60 -18 -72 -21 -13 -3 -20 -9 -17 -14 3 -5 0 -9
-6 -9 -6 0 -9 -4 -6 -9 4 -5 2 -11 -3 -13 -9 -3 -21 -49 -25 -103 -2 -16 -5
-39 -9 -50 -3 -11 -9 -42 -12 -70 -4 -27 -9 -66 -11 -85 -3 -19 -7 -69 -10
-110 -2 -41 -8 -97 -13 -125 -5 -27 -8 -61 -7 -75 1 -14 -1 -27 -5 -30 -4 -3
-9 -30 -12 -60 -3 -30 -8 -62 -11 -70 -8 -21 -23 -111 -42 -245 -1 -11 -3 -20
-4 -20 -1 0 -3 -16 -4 -35 -2 -19 -8 -62 -14 -95 -6 -33 -11 -67 -11 -75 0 -8
-7 -62 -16 -120 -8 -58 -17 -125 -20 -150 -3 -25 -9 -80 -15 -122 -6 -42 -10
-80 -8 -85 1 -4 -2 -28 -5 -53 -13 -82 -18 -134 -22 -210 -5 -88 -14 -229 -21
-320 -12 -159 -6 -557 10 -670 17 -115 23 -155 26 -155 1 0 3 -7 5 -16 17 -88
96 -279 116 -279 5 0 9 -6 9 -13 0 -12 91 -132 127 -168 10 -9 38 -40 62 -68
24 -28 47 -48 51 -46 4 3 10 -1 13 -9 6 -15 127 -111 127 -101 0 4 11 -2 25
-13 21 -17 55 -32 150 -68 11 -4 31 -9 45 -11 14 -2 32 -6 40 -10 8 -3 24 -7
35 -8 11 -1 40 -6 65 -10 64 -11 406 -12 460 -1 25 4 63 9 85 11 22 1 48 6 58
10 9 4 23 5 31 2 8 -3 17 -3 21 1 4 4 11 8 16 8 5 1 11 3 14 4 3 1 13 3 23 4
9 1 23 5 30 9 6 5 16 6 21 2 5 -3 13 0 16 6 4 5 13 8 20 5 8 -3 15 -1 17 4 2
5 20 10 41 12 20 1 37 5 37 9 0 4 19 10 43 14 40 7 75 13 101 18 6 1 13 4 16
7 3 3 21 11 40 17 89 30 135 47 140 53 3 3 23 14 45 22 60 24 164 76 216 108
25 15 57 31 70 35 13 4 38 18 56 31 17 13 34 24 37 24 6 0 94 58 113 75 7 5
42 30 79 55 153 104 293 223 399 340 119 131 130 144 168 195 20 28 43 57 50
65 42 45 147 184 147 193 0 7 19 32 42 57 69 76 232 338 243 390 0 3 8 19 17
35 8 17 21 48 28 70 7 22 17 46 23 53 5 6 7 12 3 12 -4 0 1 11 10 25 9 14 13
25 10 25 -4 0 0 14 9 30 9 17 13 30 10 30 -3 0 1 13 9 29 9 16 12 31 9 35 -4
3 -1 6 5 6 7 0 11 3 10 8 -1 4 4 23 11 42 8 19 15 38 16 43 1 4 3 8 4 10 2 1
5 13 8 27 6 33 11 54 13 60 1 3 2 8 1 13 0 4 4 7 10 7 5 0 8 4 4 9 -3 5 -1 12
5 16 6 4 8 11 4 16 -3 5 0 16 6 24 11 14 13 22 25 94 3 19 9 39 14 45 4 6 7
19 6 28 -2 10 1 20 6 24 5 3 7 10 4 15 -4 5 -3 15 2 22 4 6 9 21 10 32 2 11 6
27 10 35 3 8 7 22 7 30 1 8 5 21 9 28 5 6 5 17 2 22 -3 6 -1 10 6 10 7 0 10 3
6 6 -3 3 -2 17 4 31 9 24 19 70 24 108 2 20 -3 28 -69 98 -20 22 -36 41 -36
43 0 2 -15 21 -34 42 -31 33 -78 88 -159 180 -15 18 -26 32 -24 32 2 0 -13 19
-34 43 -21 23 -80 88 -130 145 -81 90 -95 102 -123 101 -89 -4 -140 -52 -179
-170 -21 -63 -24 -85 -15 -90 7 -5 15 -4 18 1 3 5 16 8 29 5 12 -2 33 0 46 5
12 5 26 6 30 2 3 -3 20 -7 38 -8 65 -3 103 -29 92 -63 -6 -21 -21 -26 -60 -21
-11 1 -29 4 -40 5 -11 1 -20 3 -20 5 0 6 -53 6 -66 -1 -9 -4 -28 -10 -44 -13
-31 -6 -78 -54 -93 -94 -15 -43 -52 -168 -52 -176 0 -5 6 -3 13 3 8 6 17 8 20
5 3 -3 12 -2 19 2 14 9 37 15 53 15 18 -1 108 -18 113 -21 2 -3 18 -7 31 -9
14 -2 23 -53 12 -64 -15 -15 -43 -18 -58 -5 -7 6 -13 7 -13 3 0 -4 -6 -4 -12
1 -18 13 -110 8 -148 -6 -3 -1 -8 -2 -12 -1 -5 0 -8 -4 -8 -9 0 -6 -11 -15
-24 -21 -13 -6 -27 -19 -29 -28 -3 -9 -21 -60 -41 -114 -29 -81 -32 -97 -18
-91 33 14 139 13 183 -3 56 -19 69 -30 69 -59 0 -33 -31 -39 -104 -19 -49 13
-70 15 -101 6 -91 -25 -114 -52 -175 -213 l-18 -47 62 1 c69 1 126 -13 174
-42 36 -22 39 -32 16 -51 -24 -19 -44 -20 -87 -4 -20 8 -62 15 -92 15 -85 0
-125 -30 -176 -133 -23 -45 -48 -90 -57 -99 -14 -17 -12 -18 29 -19 24 0 58
-2 75 -3 40 -4 124 -42 124 -56 0 -6 4 -9 9 -6 15 10 21 -38 7 -53 -15 -14
-86 -8 -86 7 0 16 -92 34 -137 28 -44 -6 -113 -46 -113 -66 0 -5 -6 -15 -12
-22 -19 -19 -88 -126 -88 -136 0 -4 21 -8 47 -9 25 -2 50 -8 55 -15 4 -7 8 -9
8 -5 0 14 94 -44 113 -70 23 -29 16 -71 -10 -69 -25 3 -73 28 -73 38 0 5 -4 6
-10 3 -5 -3 -10 -3 -10 2 0 4 -12 13 -27 20 -36 15 -123 26 -123 15 0 -4 -9
-8 -21 -9 -22 -2 -106 -71 -108 -88 -1 -5 -19 -27 -41 -49 -40 -39 -49 -55
-30 -57 88 -11 227 -146 190 -183 -25 -25 -69 -8 -98 40 -11 17 -70 55 -94 61
-54 13 -119 6 -146 -16 -15 -11 -40 -28 -57 -37 -16 -9 -32 -20 -35 -23 -3 -4
-22 -15 -42 -24 -21 -10 -38 -22 -38 -27 0 -6 4 -9 8 -8 5 2 30 -18 56 -44 26
-27 43 -48 39 -48 -4 0 0 -5 10 -11 9 -5 17 -19 17 -29 0 -10 4 -21 9 -24 14
-9 20 -60 9 -73 -6 -7 -21 -13 -33 -13 -18 0 -30 14 -55 63 -30 56 -83 119
-99 114 -3 0 -15 3 -26 9 -23 12 -62 10 -120 -6 -22 -6 -49 -13 -60 -15 -11
-2 -20 -4 -20 -5 0 -3 -63 -17 -88 -19 -5 -1 3 -14 16 -31 39 -46 68 -135 65
-194 -3 -49 -4 -51 -35 -54 -35 -3 -36 -3 -48 86 -6 51 -35 110 -63 134 -39
32 -64 39 -150 43 -48 2 -104 6 -125 8 -32 4 -37 2 -32 -11 16 -43 17 -131 1
-188 -19 -64 -36 -85 -66 -77 -28 7 -32 33 -15 83 19 55 19 111 0 158 -18 42
-52 82 -71 82 -7 0 -19 6 -26 13 -7 6 -19 13 -26 15 -28 5 -102 45 -102 54 0
5 -6 5 -16 0 -13 -7 -17 -26 -19 -73 -3 -69 -36 -159 -67 -178 -45 -28 -72 28
-39 84 11 19 18 42 15 50 -4 8 -1 15 5 15 7 0 9 19 7 53 -4 53 -23 107 -38
107 -4 0 -8 6 -8 14 0 8 -10 16 -23 20 -12 3 -32 15 -45 26 -12 11 -22 17 -22
13 0 -4 -7 1 -15 11 -8 11 -15 16 -15 11 0 -5 -16 6 -35 25 -19 18 -32 38 -28
44 3 6 -19 -15 -48 -46 -51 -54 -127 -105 -169 -113 -20 -4 -43 17 -46 41 -1
8 19 25 46 39 27 14 53 33 59 42 5 10 12 17 15 16 15 -7 25 -1 32 19 3 12 13
28 20 36 8 7 12 17 9 22 -3 5 -1 11 4 15 12 7 4 85 -11 102 -6 7 -7 13 -3 13
4 0 2 6 -4 13 -6 8 -8 17 -4 21 4 4 2 11 -5 15 -7 4 -16 23 -19 42 -2 19 -9
35 -13 37 -5 2 -6 15 -3 30 4 15 6 42 6 60 0 17 3 32 6 32 4 0 7 24 8 53 2 28
5 77 8 107 3 30 7 71 8 90 2 19 6 40 10 46 3 6 5 21 2 32 -2 12 0 24 4 26 4 3
7 29 6 58 -1 29 1 58 4 63 3 6 7 21 8 35 3 25 9 69 18 138 3 20 6 47 7 60 1
12 5 22 8 22 4 0 6 12 5 28 -1 15 2 34 6 43 8 15 14 41 26 104 3 17 8 32 12
35 3 3 15 24 25 46 10 23 30 55 45 71 24 26 79 151 122 278 8 22 16 42 19 45
3 3 10 19 16 35 21 55 95 240 110 271 41 93 42 222 1 301 -53 102 -172 155
-377 168 -221 14 -236 14 -285 -1z"/>
<path d="M7619 7221 c-38 -12 -70 -31 -106 -62 l-33 -28 37 -48 c47 -62 146
-173 154 -173 4 0 12 14 19 30 14 34 78 100 97 100 7 0 13 4 13 9 0 5 14 14
31 20 l31 11 -44 33 c-52 39 -166 117 -170 116 -2 0 -15 -4 -29 -8z"/>
<path d="M10283 7063 c-20 -7 -16 -14 45 -81 48 -51 64 -63 88 -62 71 3 146 2
239 -3 l100 -6 -30 22 c-16 12 -41 34 -55 48 -30 31 -57 46 -96 53 -51 10
-178 24 -223 26 -25 0 -47 2 -50 4 -3 2 -12 1 -18 -1z"/>
<path d="M10115 7043 c-42 -9 -160 -46 -170 -53 -13 -8 -105 -43 -124 -46 -8
-2 -17 -8 -21 -14 -4 -7 -9 -11 -11 -9 -9 5 -79 -23 -79 -32 0 -6 -4 -8 -9 -4
-5 3 -15 0 -23 -7 -7 -7 -17 -13 -23 -13 -16 -1 -139 -66 -147 -79 -5 -6 -8
-7 -8 -1 0 6 -6 3 -13 -5 -7 -8 -18 -16 -25 -18 -16 -3 -95 -53 -104 -67 -4
-5 -8 -6 -8 -2 0 9 -73 -43 -78 -55 -2 -5 -8 -8 -14 -8 -15 0 -126 -80 -132
-96 -3 -8 -12 -14 -21 -14 -8 0 -15 -4 -15 -10 0 -5 -7 -10 -16 -10 -8 0 -12
-4 -9 -10 3 -5 2 -10 -4 -10 -5 0 -21 -10 -35 -22 -14 -13 -52 -45 -85 -71
-34 -27 -61 -53 -61 -59 0 -5 -4 -6 -10 -3 -5 3 -10 2 -10 -3 0 -14 167 -162
183 -162 3 0 18 12 35 28 84 76 103 92 111 92 5 0 16 12 26 26 9 14 19 23 22
21 2 -3 21 10 41 30 21 19 57 49 82 66 25 17 48 35 52 41 4 6 8 7 8 3 0 -5 7
-2 15 5 30 27 44 38 50 38 4 0 13 6 20 13 33 29 45 37 45 32 0 -4 12 3 26 14
15 12 33 21 40 21 8 0 14 4 14 8 0 8 97 59 235 123 39 18 83 41 98 52 15 10
33 20 40 21 7 1 28 11 47 21 19 11 40 20 46 20 6 0 22 6 35 13 13 7 53 21 89
31 36 10 65 20 65 23 0 13 -128 148 -138 147 -7 -1 -21 -3 -32 -6z"/>
<path d="M7855 6991 c-49 -22 -79 -54 -100 -105 -20 -46 -15 -71 22 -111 16
-16 53 -59 83 -95 82 -97 80 -95 73 -56 -4 25 1 47 16 76 22 42 91 120 91 104
0 -5 5 -1 11 9 6 9 14 15 20 12 5 -4 9 -1 9 5 0 7 6 10 12 8 7 -3 19 2 26 9
12 12 7 20 -34 56 -128 113 -154 123 -229 88z"/>
<path d="M4749 6986 c-2 -2 -40 -7 -83 -10 -82 -7 -124 -12 -186 -22 -19 -3
-51 -8 -70 -10 -19 -3 -36 -9 -38 -14 -2 -5 -9 -7 -17 -4 -12 5 -127 -19 -165
-33 -8 -4 -21 -5 -27 -4 -7 1 -13 -3 -13 -9 0 -5 -5 -9 -11 -7 -11 2 -41 -45
-94 -145 -26 -50 -32 -73 -15 -63 12 7 46 16 75 19 11 1 25 4 30 8 6 3 18 4
28 3 9 -2 17 1 17 5 0 5 8 9 18 9 25 -1 66 6 77 13 6 3 18 4 28 3 9 -2 17 1
17 6 0 4 18 7 40 5 22 -2 43 1 46 6 3 5 16 8 27 7 12 0 24 0 27 1 8 4 60 10
140 15 41 3 104 7 140 10 36 2 71 4 79 5 8 0 12 3 8 6 -3 3 -2 17 3 30 6 14
12 35 14 47 2 12 11 40 19 62 20 58 14 65 -52 65 -32 0 -60 -2 -62 -4z"/>
<path d="M4962 6985 c4 -4 3 -15 -2 -25 -9 -16 -21 -62 -22 -87 -1 -7 -6 -13
-11 -13 -6 0 -7 -3 -4 -7 4 -3 2 -12 -4 -20 -6 -7 -8 -13 -5 -13 4 0 2 -9 -4
-19 -14 -27 -2 -32 73 -36 34 -2 76 -6 92 -9 17 -3 44 -8 60 -10 17 -3 47 -8
69 -11 21 -2 45 -10 52 -16 8 -6 14 -9 14 -6 0 3 30 -3 68 -15 37 -11 73 -20
80 -21 6 0 12 -4 12 -9 0 -5 4 -7 10 -3 5 3 17 1 27 -4 17 -9 52 -23 63 -25 3
-1 11 -5 18 -9 7 -5 24 -11 39 -13 15 -3 31 -8 37 -12 6 -4 13 -7 16 -7 3 0
19 -5 35 -12 63 -24 70 -26 77 -27 3 -1 10 -4 14 -8 4 -5 16 -8 26 -8 10 0 18
-5 18 -12 0 -6 3 -9 6 -5 4 3 21 -1 38 -10 17 -10 34 -16 39 -15 4 1 7 -3 7
-9 0 -5 4 -8 9 -4 6 3 15 -3 20 -12 10 -17 12 -17 24 2 6 10 23 58 38 105 l25
85 -20 12 c-24 14 -88 46 -96 48 -20 4 -127 49 -137 57 -7 6 -13 7 -13 3 0 -4
-7 -2 -15 5 -8 7 -15 9 -15 4 0 -5 -4 -3 -9 4 -4 7 -18 14 -29 15 -12 1 -22 4
-22 8 0 6 -57 21 -64 16 -1 -1 -10 4 -19 12 -10 7 -17 10 -17 5 0 -5 -4 -4 -8
1 -4 6 -25 15 -47 22 -22 6 -80 23 -130 37 -150 43 -433 92 -413 71z"/>
<path d="M6206 6944 c-9 -22 -2 -27 24 -19 17 5 19 10 9 21 -15 18 -25 18 -33
-2z"/>
<path d="M10470 6845 c0 -8 18 -30 75 -89 46 -47 53 -51 90 -49 22 2 65 3 95
2 30 -1 79 -2 108 -2 28 -1 52 -4 52 -7 0 -3 33 -6 73 -7 66 -3 70 -2 52 13
-11 8 -31 23 -45 34 -14 11 -29 19 -33 19 -5 0 -16 8 -25 19 -9 10 -30 22 -47
26 -16 4 -39 10 -50 13 -44 11 -102 18 -252 28 -51 3 -93 3 -93 0z"/>
<path d="M10288 6815 c-21 -8 -38 -12 -38 -9 0 2 -13 -2 -30 -11 -16 -9 -30
-13 -30 -9 0 3 -11 -1 -25 -10 -14 -9 -25 -14 -25 -11 0 3 -15 -2 -32 -12 -18
-9 -39 -16 -45 -15 -7 2 -13 -2 -13 -8 0 -5 -3 -9 -7 -8 -8 1 -125 -54 -153
-72 -19 -13 -112 -54 -123 -55 -4 0 -11 -5 -15 -10 -4 -6 -33 -23 -64 -40 -32
-16 -58 -33 -58 -37 0 -4 -7 -8 -15 -8 -8 0 -15 -5 -15 -11 0 -5 -4 -7 -10 -4
-5 3 -10 1 -10 -4 0 -6 -7 -11 -15 -11 -8 0 -15 -4 -15 -10 0 -5 -6 -10 -13
-10 -7 0 -20 -8 -29 -17 -24 -25 -48 -45 -48 -38 0 3 -8 -3 -18 -12 -10 -10
-29 -25 -42 -33 -13 -8 -32 -23 -42 -32 -10 -10 -21 -18 -24 -18 -4 0 -15 -10
-25 -22 -11 -11 -19 -17 -19 -13 0 5 -16 -8 -35 -29 -19 -21 -35 -35 -35 -32
0 4 -11 -5 -25 -20 -14 -15 -25 -23 -25 -19 0 5 -13 -7 -30 -25 -16 -18 -30
-37 -30 -40 0 -4 37 -40 81 -80 73 -66 83 -72 94 -57 7 9 15 17 19 17 4 0 24
17 46 39 21 21 41 37 43 34 3 -2 16 10 30 27 14 16 30 30 36 30 5 0 19 12 31
28 12 15 24 26 26 24 5 -3 58 36 94 70 10 9 21 14 23 11 3 -3 12 4 19 16 7 12
19 21 26 21 7 0 15 7 18 15 4 8 10 13 14 10 5 -3 12 1 17 9 4 8 13 16 18 17
22 4 55 23 55 31 0 4 7 8 15 8 9 0 18 7 21 15 4 8 10 12 15 9 5 -3 9 0 9 6 0
6 4 9 9 5 5 -3 12 -1 16 5 3 5 27 20 53 31 26 12 50 27 54 33 4 6 8 8 8 3 0
-4 17 3 38 16 39 24 49 29 152 75 88 39 153 67 160 68 3 0 12 4 20 7 8 4 41
15 73 24 l57 18 -66 70 c-37 38 -77 70 -88 72 -12 1 -38 -5 -58 -12z"/>
<path d="M4666 6693 c-3 -3 -102 -12 -168 -14 -16 -1 -28 -4 -28 -8 0 -4 -8
-8 -17 -9 -79 -8 -148 -18 -148 -21 0 -2 -17 -4 -37 -6 -20 -1 -42 -6 -48 -10
-12 -7 -54 -16 -82 -16 -10 0 -20 -4 -23 -9 -3 -4 -14 -6 -24 -3 -10 3 -22 0
-25 -6 -4 -5 -13 -8 -21 -4 -8 3 -15 0 -15 -7 0 -7 -8 -9 -20 -5 -11 4 -20 2
-20 -4 0 -6 -6 -8 -12 -6 -11 4 -39 -33 -91 -120 -7 -11 -16 -23 -21 -26 -5
-4 -5 -15 -1 -25 4 -12 9 -14 12 -7 2 6 15 10 28 7 13 -2 27 0 30 6 4 6 11 8
16 5 5 -4 9 0 9 7 0 9 3 9 10 -2 7 -11 10 -11 10 -2 0 7 5 10 10 7 6 -3 15 -3
22 1 7 4 24 9 38 11 29 4 64 11 68 13 1 2 16 4 32 5 17 1 31 4 33 5 1 1 16 4
32 5 17 2 30 4 30 5 0 2 20 4 45 6 67 5 125 12 125 14 0 2 81 7 222 13 46 2
84 5 87 8 3 3 66 186 66 192 0 4 -120 4 -124 0z"/>
<path d="M4874 6685 c-3 -7 -7 -19 -8 -27 -2 -7 -6 -20 -9 -28 -14 -34 -44
-135 -42 -138 2 -2 11 -5 22 -7 10 -2 18 -4 18 -5 0 -1 16 -4 35 -6 90 -11
163 -21 170 -24 3 -1 10 -3 15 -4 6 -1 23 -7 38 -14 15 -6 31 -11 35 -11 4 1
9 0 12 -1 3 -1 13 -3 23 -5 10 -2 26 -7 35 -11 20 -9 15 -7 72 -23 25 -7 50
-16 55 -20 6 -4 28 -13 50 -20 22 -7 50 -17 63 -22 12 -5 32 -13 45 -18 31
-13 85 -36 137 -59 25 -11 52 -22 60 -24 8 -2 21 -9 29 -16 7 -7 19 -11 27 -8
7 3 14 1 16 -4 2 -5 10 -10 18 -12 8 -2 23 -11 34 -21 11 -9 23 -14 27 -10 3
5 19 46 33 93 15 47 31 92 35 100 4 8 4 26 0 40 -4 14 -7 21 -8 16 -1 -5 -9
-2 -19 7 -10 10 -22 14 -25 10 -4 -3 -7 0 -7 7 0 7 -3 10 -7 7 -3 -4 -15 0
-25 10 -10 9 -18 13 -18 9 0 -3 -10 0 -22 8 -13 8 -32 16 -43 18 -11 2 -22 6
-25 10 -3 4 -17 9 -30 10 -14 2 -28 7 -31 11 -3 4 -16 9 -27 10 -12 1 -22 4
-22 8 0 6 -58 23 -72 20 -5 0 -8 3 -8 8 0 5 -15 13 -32 16 -18 4 -38 11 -44
16 -6 5 -24 10 -40 12 -17 2 -35 6 -40 10 -6 3 -24 9 -40 12 -39 8 -59 13 -59
15 0 2 -16 6 -100 25 -102 22 -115 25 -170 30 -27 3 -67 7 -88 10 -26 2 -40
-1 -43 -10z"/>
<path d="M10686 6609 c7 -8 14 -21 14 -27 0 -7 3 -11 8 -11 20 3 32 -2 32 -15
0 -8 16 -28 35 -44 27 -24 40 -30 62 -25 26 6 77 6 211 1 28 -2 52 -6 52 -11
0 -4 16 -6 35 -4 19 3 35 1 35 -4 0 -4 16 -6 35 -5 19 2 35 0 35 -5 0 -4 11
-6 25 -4 14 1 25 -2 25 -7 0 -6 7 -8 15 -5 8 4 17 2 20 -3 3 -5 14 -7 25 -5
11 2 20 -1 20 -7 0 -6 3 -8 6 -5 4 3 15 2 26 -4 11 -6 22 -8 25 -5 9 8 -37 47
-69 58 -16 6 -28 14 -28 19 0 5 -9 9 -19 9 -10 0 -21 7 -25 15 -3 8 -12 15
-21 15 -8 0 -15 5 -15 12 0 6 -3 8 -7 5 -3 -4 -12 -2 -20 4 -7 6 -13 8 -13 4
0 -4 -6 -2 -14 4 -8 6 -18 11 -22 10 -5 -1 -11 0 -14 1 -8 3 -44 11 -65 15
-11 2 -20 4 -20 5 0 2 -13 4 -30 5 -16 2 -30 4 -30 5 0 4 -33 8 -95 14 -30 2
-57 5 -60 7 -3 1 -46 3 -97 3 -84 1 -91 0 -77 -15z"/>
<path d="M10551 6611 c-8 -5 -20 -7 -27 -4 -6 2 -15 -1 -19 -6 -3 -6 -10 -9
-15 -6 -5 3 -19 1 -32 -4 -22 -9 -57 -22 -68 -26 -3 -1 -17 -5 -32 -9 -16 -5
-28 -12 -28 -17 0 -5 -3 -8 -7 -7 -5 2 -33 -8 -63 -22 -30 -13 -58 -23 -62
-22 -5 1 -8 -2 -8 -7 0 -7 -17 -15 -60 -26 -3 0 -20 -11 -39 -22 -19 -12 -38
-20 -42 -18 -4 3 -10 -2 -13 -11 -3 -8 -10 -12 -16 -9 -5 3 -10 1 -10 -5 0 -6
-4 -9 -9 -6 -5 4 -11 3 -13 -1 -1 -5 -25 -19 -53 -33 -55 -27 -98 -55 -132
-84 -13 -11 -23 -16 -23 -13 0 4 -13 -5 -29 -19 -16 -14 -33 -26 -38 -27 -4 0
-14 -7 -22 -15 -8 -8 -49 -40 -90 -71 -41 -31 -83 -63 -92 -71 -9 -8 -37 -33
-63 -55 -90 -75 -108 -94 -105 -104 2 -5 35 -37 73 -70 l68 -61 28 20 c15 10
33 27 41 36 42 51 377 294 509 369 92 53 310 164 310 159 0 -3 12 1 28 10 15
8 45 22 67 31 22 9 49 20 60 25 43 18 61 23 73 21 6 -1 12 3 12 9 0 5 3 9 8 9
4 -1 9 -1 12 1 3 1 16 4 30 6 35 6 44 19 26 36 -8 9 -12 18 -9 22 4 3 2 6 -4
6 -15 0 -83 67 -76 74 4 3 -1 6 -9 6 -9 0 -18 4 -20 10 -2 5 -9 6 -17 1z"/>
<path d="M4523 6410 c-10 -4 -30 -6 -45 -5 -16 1 -28 -1 -28 -5 0 -3 -26 -7
-57 -8 -60 -1 -136 -8 -140 -12 -2 -1 -12 -4 -23 -5 -11 -1 -21 -4 -22 -5 -3
-2 -25 -5 -91 -14 -21 -3 -48 -8 -60 -13 -12 -4 -30 -8 -39 -9 -10 -1 -19 -3
-20 -4 -2 -1 -16 -4 -33 -5 -16 -2 -32 -4 -35 -5 -3 -2 -9 -4 -15 -5 -5 -2
-12 -4 -15 -5 -3 -1 -18 -4 -35 -6 -52 -6 -55 -7 -55 -17 0 -5 -7 -6 -15 -3
-10 3 -18 -1 -22 -12 -4 -9 -17 -26 -30 -37 -13 -11 -23 -26 -23 -33 0 -7 -4
-10 -10 -7 -5 3 -10 2 -10 -4 0 -6 -10 -20 -22 -32 l-23 -21 40 6 c22 4 54 9
70 12 55 9 90 15 120 19 17 3 46 7 65 10 19 2 58 6 85 8 28 2 52 5 55 6 7 4
112 10 225 13 55 2 106 7 113 11 6 5 12 4 12 -1 0 -5 41 -9 92 -8 l91 1 35 92
c20 51 32 96 28 100 -9 9 -139 11 -163 3z"/>
<path d="M10883 6407 c-3 -5 24 -38 59 -72 l64 -64 60 5 c32 3 70 7 84 8 14 2
30 0 35 -4 6 -4 37 -8 70 -8 33 -1 85 -4 115 -7 30 -3 65 -7 78 -8 12 -1 22
-5 22 -10 0 -4 11 -5 25 -3 13 3 27 0 31 -5 3 -6 12 -8 19 -5 7 2 16 2 19 -2
7 -6 30 -12 54 -14 6 -1 12 -6 12 -11 0 -5 6 -7 14 -4 7 3 18 1 22 -3 5 -5 24
-10 42 -12 19 -1 36 -6 38 -10 9 -14 34 -9 34 7 0 8 -7 15 -15 15 -8 0 -15 4
-15 9 0 8 -20 18 -50 26 -3 1 -18 8 -35 15 -33 14 -53 21 -72 22 -7 1 -13 5
-13 10 0 4 -6 8 -14 8 -7 0 -26 7 -42 14 -15 8 -31 13 -36 10 -5 -3 -14 -1
-21 4 -10 9 -71 28 -117 37 -8 2 -15 4 -15 5 0 2 -34 9 -75 15 -19 3 -48 7
-65 10 -16 3 -48 8 -70 10 -22 3 -56 7 -75 10 -63 11 -161 12 -167 2z"/>
<path d="M4780 6393 c0 -7 -5 -13 -12 -13 -6 0 -9 -3 -6 -6 6 -5 -5 -38 -37
-109 -26 -58 -24 -70 15 -72 19 -1 71 -11 115 -23 44 -12 87 -23 95 -25 21 -5
109 -35 145 -50 17 -7 50 -20 75 -30 25 -9 56 -23 70 -30 14 -7 27 -13 30 -13
25 -1 376 -173 412 -201 18 -15 25 -27 21 -39 -6 -16 -6 -16 9 -1 20 20 40 66
79 182 24 74 27 91 17 106 -7 10 -17 19 -21 19 -4 0 -45 18 -90 40 -45 22 -92
43 -104 46 -13 4 -23 12 -23 17 0 6 -4 7 -10 4 -5 -3 -16 -3 -22 2 -7 4 -19 8
-27 10 -8 1 -17 7 -21 13 -4 7 -9 11 -11 9 -2 -1 -15 1 -29 5 -14 5 -28 8 -32
7 -5 -1 -8 4 -8 11 0 6 -3 8 -7 5 -3 -4 -11 -2 -18 3 -6 5 -20 11 -31 13 -10
2 -29 9 -41 15 -13 7 -23 10 -23 6 0 -3 -7 -1 -15 6 -8 7 -15 9 -15 5 0 -4 -7
-2 -15 5 -8 7 -15 9 -15 5 0 -4 -7 -2 -15 5 -9 7 -18 10 -22 7 -3 -4 -12 -2
-20 4 -7 6 -13 8 -13 4 0 -4 -7 -2 -15 5 -8 7 -15 10 -15 6 0 -3 -12 -1 -27 5
-16 6 -41 13 -58 16 -41 7 -60 11 -60 13 0 1 -42 8 -90 14 -16 3 -30 5 -30 6
0 1 -19 3 -42 4 -29 1 -43 -3 -43 -11z"/>
<path d="M10729 6390 c-7 -5 -17 -6 -21 -4 -4 3 -14 2 -20 -3 -7 -4 -17 -8
-23 -9 -5 -1 -23 -8 -40 -15 -16 -7 -34 -11 -38 -11 -4 1 -20 -4 -36 -13 -16
-8 -31 -11 -35 -8 -3 4 -6 1 -6 -5 0 -7 -3 -12 -7 -11 -14 2 -53 -13 -53 -20
0 -4 -7 -8 -15 -8 -12 0 -176 -76 -225 -105 -8 -4 -31 -16 -50 -26 -19 -9 -46
-25 -60 -33 -253 -164 -311 -204 -366 -254 -6 -5 -50 -41 -97 -80 -47 -38 -86
-73 -87 -77 0 -8 132 -116 178 -146 22 -14 25 -13 65 25 142 134 495 393 535
393 7 0 12 4 12 8 0 9 182 102 199 102 6 0 11 4 11 8 0 9 119 66 133 63 4 0 7
3 7 7 0 5 6 9 13 9 6 0 44 12 82 27 39 15 82 32 98 38 15 6 27 11 27 13 0 1
-31 33 -69 70 -69 69 -87 80 -112 65z"/>
<path d="M11140 6200 c0 -4 -11 -6 -25 -5 -14 2 -25 0 -25 -5 0 -11 119 -115
133 -115 7 0 17 -4 23 -8 7 -4 14 -1 17 7 3 7 18 16 34 19 15 3 39 8 52 11 13
3 41 6 62 8 22 1 39 4 39 8 0 3 23 5 52 4 29 -1 62 2 73 6 17 6 12 10 -25 20
-25 7 -54 14 -65 15 -11 2 -36 6 -55 10 -76 13 -108 16 -180 20 -41 1 -75 4
-75 5 0 1 -8 3 -17 5 -10 2 -18 0 -18 -5z"/>
<path d="M10966 6183 c-3 -4 -17 -9 -29 -11 -38 -6 -42 -7 -54 -15 -7 -5 -17
-5 -23 -2 -5 3 -10 2 -10 -3 0 -8 -28 -20 -60 -26 -3 -1 -11 -5 -17 -9 -7 -5
-13 -5 -13 0 0 4 -4 3 -8 -2 -4 -6 -65 -37 -137 -69 -71 -33 -135 -65 -140
-71 -6 -7 -20 -15 -32 -19 -44 -14 -323 -193 -353 -226 -3 -4 -23 -19 -45 -35
-22 -17 -82 -66 -133 -110 -108 -92 -111 -78 38 -154 155 -79 315 -123 315
-86 0 9 32 44 158 171 48 49 117 112 172 158 17 14 42 35 57 48 15 13 59 45
97 73 39 27 71 53 71 57 0 4 6 8 13 8 7 0 24 11 39 25 15 14 31 25 36 25 4 0
46 24 93 54 46 29 94 56 107 60 23 8 29 22 12 28 -5 2 -40 33 -78 70 -38 37
-72 65 -76 61z"/>
<path d="M4194 6131 c-3 -3 -26 -6 -52 -8 -26 -2 -69 -6 -97 -9 -27 -3 -65 -7
-82 -8 -18 0 -33 -5 -33 -10 0 -4 -16 -6 -35 -4 -19 2 -35 1 -35 -2 0 -4 -12
-7 -27 -8 -41 -2 -67 -7 -79 -14 -5 -4 -19 -5 -30 -4 -10 2 -23 1 -29 -3 -13
-7 -30 -10 -82 -13 -24 -2 -43 -7 -43 -11 0 -5 -4 -5 -10 -2 -5 3 -10 -1 -10
-9 0 -9 -4 -16 -8 -16 -5 0 -9 -7 -10 -15 -1 -8 -3 -22 -4 -30 -1 -8 -4 -15
-8 -15 -3 0 -6 -11 -6 -25 0 -19 5 -25 23 -25 13 0 23 3 23 8 0 4 19 7 43 8
43 0 92 4 342 25 134 11 468 7 525 -6 24 -6 28 -1 68 84 23 50 42 95 42 101 0
12 -1 12 -218 14 -90 0 -166 -1 -168 -3z"/>
<path d="M4671 6117 c-6 -6 -11 -15 -11 -19 0 -4 -16 -41 -34 -81 -19 -41 -36
-80 -38 -87 -2 -8 18 -17 59 -26 59 -12 221 -59 253 -74 8 -4 30 -14 48 -23
19 -9 39 -17 45 -17 30 0 541 -266 557 -290 3 -4 14 -10 26 -14 18 -5 25 6 66
101 25 60 48 120 51 136 4 23 1 27 -14 22 -11 -4 -31 2 -47 13 -15 10 -35 22
-44 25 -10 4 -43 22 -73 42 -31 19 -57 35 -60 35 -2 0 -100 41 -217 91 -117
50 -220 92 -228 94 -8 2 -60 15 -115 30 -119 31 -132 35 -165 41 -14 2 -30 6
-36 9 -6 2 -17 -2 -23 -8z"/>
<path d="M11540 6048 c0 -4 -19 -7 -42 -7 -38 1 -119 -7 -125 -12 -5 -3 -22
-6 -38 -8 -27 -2 -16 -18 27 -37 23 -10 45 -19 48 -19 3 -1 15 -6 28 -13 28
-16 48 -10 92 29 19 16 47 37 63 45 15 8 27 16 27 18 0 2 -18 6 -40 8 -22 2
-40 0 -40 -4z"/>
<path d="M11733 6012 c-79 -42 -143 -83 -143 -91 0 -5 37 -8 82 -7 88 1 82 -3
92 67 1 14 6 31 10 38 10 15 -3 13 -41 -7z"/>
<path d="M11110 5937 c-80 -40 -94 -48 -123 -72 -7 -6 -37 -26 -67 -44 -30
-19 -57 -36 -60 -40 -12 -15 -90 -71 -98 -71 -6 0 -12 -7 -16 -15 -3 -8 -10
-15 -16 -15 -5 0 -18 -8 -28 -17 -10 -10 -34 -30 -53 -45 -46 -38 -158 -139
-178 -162 -9 -10 -44 -48 -79 -84 -35 -35 -61 -66 -60 -68 19 -19 620 -44 662
-28 9 3 16 14 16 24 0 44 218 376 343 522 l49 58 -44 19 c-23 10 -65 32 -92
50 -28 17 -55 31 -60 31 -6 -1 -49 -20 -96 -43z"/>
<path d="M3988 5865 c-2 -1 -55 -6 -118 -10 -63 -4 -128 -9 -145 -11 -16 -2
-55 -6 -85 -9 -30 -3 -77 -11 -105 -18 -42 -11 -49 -17 -50 -38 0 -13 -2 -28
-5 -34 -3 -5 -5 -23 -5 -40 0 -16 -4 -34 -10 -38 -5 -5 19 -6 55 -3 283 23
487 29 637 17 87 -6 170 -14 186 -18 26 -5 29 -1 72 88 29 63 41 97 34 104 -9
9 -451 19 -461 10z"/>
<path d="M11449 5813 c-85 -89 -202 -257 -295 -420 -31 -54 -47 -93 -40 -93
25 0 127 39 194 75 141 75 293 229 374 383 l37 69 -82 6 c-45 4 -98 9 -117 12
-31 5 -39 1 -71 -32z"/>
<path d="M4503 5750 c-24 -51 -43 -95 -43 -98 0 -4 39 -18 88 -31 124 -34 453
-167 472 -192 3 -3 30 -18 60 -33 30 -15 93 -50 138 -77 46 -27 88 -49 93 -49
5 0 9 -4 9 -10 0 -5 6 -10 13 -10 7 0 23 -9 34 -19 12 -11 23 -18 26 -15 2 2
10 -2 17 -11 19 -23 34 -18 51 18 9 17 30 58 48 90 17 31 28 57 24 57 -5 0 -2
4 6 9 7 5 10 14 6 21 -7 12 -170 120 -180 120 -3 0 -49 24 -103 53 -53 29
-113 59 -132 66 -57 23 -120 51 -205 91 -72 34 -254 89 -345 105 l-35 6 -42
-91z"/>
<path d="M3710 5598 c-69 -5 -156 -14 -193 -20 -60 -9 -68 -12 -64 -29 3 -10
2 -19 -1 -19 -4 0 -8 -24 -9 -53 l-1 -52 231 3 c218 3 479 -11 484 -26 2 -4
20 -7 40 -6 37 0 39 2 85 90 26 49 44 92 40 95 -21 20 -423 31 -612 17z"/>
<path d="M4413 5558 c-6 -7 -29 -50 -51 -94 l-41 -82 132 -47 c146 -52 314
-130 431 -199 42 -25 76 -42 76 -38 0 4 5 -1 11 -10 5 -10 18 -18 28 -18 11 0
21 -7 25 -15 3 -8 10 -15 16 -15 6 0 36 -16 66 -35 30 -19 59 -35 64 -35 6 0
10 -4 10 -10 0 -5 7 -10 15 -10 8 0 15 -3 15 -8 0 -4 10 -12 23 -17 20 -9 27
-4 75 60 75 98 83 116 66 139 -7 10 -22 24 -32 30 -11 6 -70 40 -132 76 -137
79 -203 116 -255 142 -22 12 -42 24 -45 27 -12 17 -304 124 -410 151 -25 6
-52 13 -61 16 -9 2 -21 -1 -26 -8z"/>
<path d="M3460 5341 c-27 -5 -35 -11 -34 -26 0 -11 -3 -30 -7 -42 -11 -31 6
-40 96 -47 153 -12 210 -18 225 -23 8 -3 35 -7 60 -9 25 -2 52 -7 60 -11 8 -3
23 -5 32 -4 9 1 39 -5 65 -14 26 -9 57 -18 68 -20 11 -1 25 -4 30 -5 24 -6 36
2 58 38 45 71 78 134 73 140 -24 23 -617 42 -726 23z"/>
<path d="M4266 5285 c-9 -9 -16 -22 -16 -28 -1 -7 -18 -41 -40 -76 -21 -35
-36 -70 -33 -77 3 -8 9 -12 13 -9 5 3 35 -7 67 -22 64 -30 59 -28 91 -38 12
-4 22 -12 22 -17 0 -5 4 -7 9 -4 5 3 19 -2 32 -12 13 -10 50 -31 81 -48 32
-16 58 -33 58 -37 0 -5 5 -5 10 -2 6 3 10 2 10 -2 0 -5 16 -17 35 -27 19 -11
35 -24 35 -29 0 -6 3 -8 6 -4 5 5 99 -57 140 -92 7 -5 15 -7 18 -4 3 4 6 -1 6
-10 0 -9 4 -17 10 -17 5 0 42 -24 81 -54 58 -43 75 -51 87 -42 37 27 202 196
202 206 0 10 -213 155 -247 167 -10 3 -26 13 -35 21 -22 18 -92 56 -244 132
-100 49 -225 96 -360 135 -14 3 -28 0 -38 -10z"/>
<path d="M3409 5148 c-1 -2 -2 -14 -3 -28 -1 -14 -5 -30 -9 -37 -7 -12 9 -20
60 -29 15 -3 32 -9 39 -15 6 -5 13 -6 16 -3 3 3 22 -2 42 -10 20 -8 36 -12 36
-9 0 3 7 0 15 -7 8 -7 15 -9 15 -6 0 4 10 1 23 -6 12 -7 25 -11 28 -11 4 1 31
-7 60 -18 30 -12 60 -21 67 -22 6 0 12 -4 12 -9 0 -5 4 -7 9 -4 5 4 11 2 13
-4 1 -5 12 -11 23 -13 11 -2 30 -9 43 -15 18 -10 22 -10 22 0 0 7 18 33 40 58
58 66 57 65 64 88 5 15 3 22 -6 23 -24 3 -53 8 -75 13 -66 17 -104 24 -178 32
-27 3 -63 8 -80 10 -57 9 -274 26 -276 22z"/>
<path d="M4075 4975 c-27 -38 -57 -77 -67 -87 -19 -19 -25 -54 -8 -43 6 3 10
1 10 -4 0 -6 3 -10 8 -8 12 3 152 -84 152 -96 0 -6 3 -7 6 -4 4 4 15 -3 25
-15 11 -11 19 -17 19 -13 0 5 7 0 15 -11 8 -10 15 -16 15 -11 0 4 15 -8 34
-28 19 -19 37 -35 39 -35 7 0 62 -49 154 -137 76 -74 87 -81 98 -63 4 6 11 8
16 4 5 -3 16 0 24 6 8 7 15 9 15 5 0 -4 7 -2 15 5 8 7 15 9 15 5 0 -4 11 0 25
9 14 9 25 14 25 11 0 -8 92 41 146 77 23 15 44 25 48 23 22 -16 -19 21 -71 64
-34 28 -67 51 -73 51 -5 0 -10 3 -10 8 0 4 -8 12 -19 17 -27 14 -105 67 -111
74 -11 14 -70 52 -70 45 0 -4 -10 2 -23 14 -13 12 -27 19 -30 15 -4 -3 -7 -1
-7 5 0 7 -7 12 -15 12 -8 0 -15 5 -15 10 0 6 -5 10 -11 10 -5 0 -26 11 -46 25
-20 13 -40 22 -45 19 -4 -3 -8 -1 -8 5 0 10 -38 27 -52 23 -5 -1 -8 2 -8 7 0
7 -48 22 -66 20 -4 0 -10 4 -14 11 -4 6 -17 12 -28 13 -12 1 -22 5 -22 10 0 5
-6 7 -14 4 -8 -3 -16 -1 -18 5 -2 6 -26 -20 -53 -57z"/>
<path d="M3395 4970 c-3 -5 -1 -11 5 -15 6 -4 8 -10 5 -15 -3 -5 -1 -11 5 -15
6 -4 8 -10 5 -14 -5 -9 98 -81 115 -81 5 0 10 -4 10 -9 0 -5 16 -19 36 -32 20
-12 52 -37 72 -55 30 -28 39 -31 56 -22 12 6 26 18 33 27 7 9 13 13 13 10 0
-4 20 11 44 33 27 25 42 46 39 55 -3 8 -12 12 -19 9 -8 -3 -14 -1 -14 4 0 6
-5 10 -11 10 -6 0 -25 6 -42 14 -18 7 -45 18 -62 24 -16 6 -39 13 -50 18 -28
10 -48 15 -65 16 -8 1 -17 4 -20 8 -13 18 -147 44 -155 30z"/>
<path d="M3900 4771 c-14 -15 -45 -43 -70 -62 -88 -68 -87 -57 -13 -129 36
-36 77 -82 90 -102 21 -31 83 -69 83 -51 0 3 7 0 15 -7 9 -7 18 -10 22 -7 3 4
12 2 19 -4 23 -19 160 -38 247 -34 100 4 145 9 152 17 3 3 -15 25 -41 49 -26
24 -66 62 -89 84 -24 22 -56 49 -71 60 -15 11 -36 28 -46 38 -10 9 -18 15 -18
12 0 -7 -24 13 -48 38 -9 9 -22 17 -29 17 -7 0 -13 3 -13 8 0 4 -10 12 -23 17
-44 21 -112 60 -125 73 -16 14 -12 16 -42 -17z"/>
<path d="M3485 4743 c2 -10 4 -23 4 -29 1 -6 19 -25 41 -43 33 -26 43 -30 60
-21 19 10 19 11 0 30 -11 11 -21 19 -23 18 -2 -2 -21 12 -44 30 -32 25 -40 28
-38 15z"/>
<path d="M3667 4596 c-3 -8 4 -21 18 -30 38 -25 49 -19 23 13 -26 34 -34 37
-41 17z"/>
<path d="M11214 2329 c-56 -7 -141 -43 -190 -81 -37 -27 -134 -141 -134 -156
0 -6 -5 -23 -11 -39 -10 -25 -21 -89 -20 -118 1 -25 19 -92 31 -115 14 -27
110 -120 110 -107 0 2 26 -2 57 -8 84 -17 232 10 234 43 0 9 3 12 5 5 3 -7 15
-2 32 14 15 14 34 28 43 32 35 13 109 115 131 180 26 77 27 97 12 168 -11 51
-52 125 -64 118 -4 -2 -20 8 -37 23 -16 15 -38 28 -49 30 -10 2 -37 6 -59 10
-22 4 -63 5 -91 1z"/>
</g>
</svg>
